<?xml version="1.0" encoding="utf-8"?>
<!-- Generator: Adobe Illustrator 19.2.0, SVG Export Plug-In . SVG Version: 6.00 Build 0)  -->
<!DOCTYPE svg PUBLIC "-//W3C//DTD SVG 1.1//EN" "http://www.w3.org/Graphics/SVG/1.1/DTD/svg11.dtd">
<svg version="1.1" id="Layer_2" xmlns="http://www.w3.org/2000/svg" xmlns:xlink="http://www.w3.org/1999/xlink" x="0px" y="0px"
	 viewBox="0 0 140 140" enable-background="new 0 0 140 140" xml:space="preserve">
<g>
	<path fill="#FFFFFF" d="M5.6,107.8c2.9,3.3,7.3,2.2,16.4-2.2c9.1-4.4,2.2-16.4,7.6-20.7c5.5-4.4,2.5-30.6,24-30.6
		s32.7,10.2,52.4,5.5c19.6-4.7,54.9,35.3,17.5,22.9s-65.8-18.2-58.9,5.5c6.9,23.6-27.6,10.2-28.4,22.9c-0.7,12.7-35.6,9.8-36,1.1
		C3.6,109.1,2.7,104.5,5.6,107.8z"/>
	<g>
		<path fill="#677089" d="M26.8,77.2c2,1.2,3.7,2.7,5.2,4.4c-1.6,2.6-2.8,4.7-3.6,6c-1.3-1.9-2.9-3.6-5-4.9s-4.3-2-6.6-2.3
			c0.8-1.3,2.1-3.4,3.7-6C22.7,75.1,24.8,76,26.8,77.2z M28.5,74.4c2,1.2,3.7,2.7,5.3,4.3c11.1-18.6,32.3-55.5,27.9-58.2
			c-4.6-2.8-27.8,32.8-39.4,51.1C24.4,72.3,26.5,73.2,28.5,74.4z"/>
		<path fill="#677089" d="M3.7,89.8c3.8-6.1,11.9-8.1,18-4.3c6.1,3.8,8.1,11.9,4.3,18c-4.2,6.9-10.9,10.1-22.4,11
			c-0.7,0.1-1.4-0.1-2-0.5c-0.4-0.3-0.8-0.7-1.1-1.1c-0.6-1.1-0.6-2.4,0.1-3.5c2.5-3.9,2.2-7.2,1.9-10.7C2.2,95.8,1.9,92.7,3.7,89.8
			z"/>
	</g>
</g>
</svg>
