<?xml version="1.0" encoding="utf-8"?>
<!-- Generator: Adobe Illustrator 19.2.0, SVG Export Plug-In . SVG Version: 6.00 Build 0)  -->
<!DOCTYPE svg PUBLIC "-//W3C//DTD SVG 1.1//EN" "http://www.w3.org/Graphics/SVG/1.1/DTD/svg11.dtd">
<svg version="1.1" id="Layer_1" xmlns="http://www.w3.org/2000/svg" xmlns:xlink="http://www.w3.org/1999/xlink" x="0px" y="0px"
	 viewBox="0 0 140 140" enable-background="new 0 0 140 140" xml:space="preserve">
<g>
	<circle fill="#FFFFFF" cx="60.6" cy="79.5" r="35.8"/>
	<circle fill="#677089" cx="60.6" cy="79.5" r="18.3"/>
	<path fill="#677089" d="M60.6,116.7c-20.5,0-37.2-16.7-37.2-37.2s16.7-37.2,37.2-37.2c3.6,0,7.2,0.5,10.6,1.6c0.8,0.2,1.2,1,1,1.8
		c-0.2,0.8-1,1.2-1.8,1c-3.2-1-6.5-1.4-9.8-1.4c-18.9,0-34.3,15.4-34.3,34.3s15.4,34.3,34.3,34.3s34.3-15.4,34.3-34.3
		c0-2.6-0.3-5.2-0.9-7.8c-0.2-0.8,0.3-1.5,1.1-1.7c0.8-0.2,1.5,0.3,1.7,1.1c0.6,2.8,1,5.6,1,8.4C97.8,100,81.1,116.7,60.6,116.7z"/>
	<path fill="#677089" d="M60.6,140C27.2,140,0,112.8,0,79.5s27.2-60.5,60.5-60.5c9.8,0,19.5,2.4,28.1,6.9c1.8,0.9,2.4,3.1,1.5,4.9
		c-0.9,1.8-3.1,2.4-4.9,1.5c-7.7-4-16-6.1-24.7-6.1c-29.4,0-53.3,23.9-53.3,53.3s23.9,53.3,53.3,53.3s53.3-23.9,53.3-53.3
		c0-8.1-1.8-15.8-5.2-23.1c-0.9-1.8-0.1-3.9,1.7-4.8c1.8-0.9,3.9-0.1,4.8,1.7c3.9,8.2,5.9,17,5.9,26.2
		C121.1,112.8,93.9,140,60.6,140z"/>
	<path fill="#677089" d="M60.6,85.2c-1.5,0-2.9-0.6-4.1-1.7c-2.2-2.2-2.2-5.9,0-8.1l57.1-57.1c2.2-2.2,5.9-2.2,8.1,0
		c2.2,2.2,2.2,5.9,0,8.1L64.6,83.5C63.5,84.7,62,85.2,60.6,85.2z"/>
	<path fill="#677089" d="M140,18.3l-19.3,19.3l-15.3-3.1l-3.1-15.3L121.7,0l3.1,15.3L140,18.3z"/>
</g>
</svg>
