<?xml version="1.0" encoding="utf-8"?>
<!-- Generator: Adobe Illustrator 19.2.0, SVG Export Plug-In . SVG Version: 6.00 Build 0)  -->
<!DOCTYPE svg PUBLIC "-//W3C//DTD SVG 1.1//EN" "http://www.w3.org/Graphics/SVG/1.1/DTD/svg11.dtd">
<svg version="1.1" id="Layer_1" xmlns="http://www.w3.org/2000/svg" xmlns:xlink="http://www.w3.org/1999/xlink" x="0px" y="0px"
	 viewBox="0 0 140 140" enable-background="new 0 0 140 140" xml:space="preserve">
<g>
	<path fill="#FFFFFF" d="M107.4,58.6c-30.3,3.1-42.8,22-42.8,57.4L51.9,113c0,0-1.2-31.9-0.5-44.7c0.7-12.8,14.4-9,14.4-9l10.6-21
		c0,0-8-22.5,11.8-23.9s13.5,36.4,13.5,36.4L107.4,58.6z M5.6,57.4l5.2,35.5l26-13.2l-1.2-22.2H5.6z"/>
	<path fill="#677089" d="M89.4,19.9c4.1,0,8.3,3.5,8.3,14c0,20.7-0.8,25.5-1.3,26.8c0,0,24.7,0,29.4,0c4.7,0,7.2,14.7-1.3,14.7
		c4.5,2.3,4,14.3-4.3,15.5c5.7,3.2,4.9,14.1-4.1,14.1c7.2,2.6,4.7,15.1-1.3,15.1c-6,0-31.9,0-37.1,0c-5.3,0-10.9-9.8-16.6-9.8h-4.5
		V66l11.3-1.1L81.1,40c0,0,0.2-5.7,0.2-13C81.3,23.3,85.3,19.9,89.4,19.9 M89.4,10c-9.6,0-18,7.9-18,17c0,4.4-0.1,8.1-0.1,10.4
		l-9.8,18.2l-6.1,0.6c-5.1,0.5-8.9,4.8-8.9,9.9v44.3c0,5.5,4.4,9.9,9.9,9.9h3.5c0.8,0.6,2.1,1.7,3.1,2.5c3.7,3.2,8.2,7.3,14.6,7.3
		h37.1c7.5,0,13.8-5.9,15.3-14.3c0.4-2.5,0.4-5,0-7.3c1.4-1.8,2.5-3.9,3.1-6.3c0.7-2.8,0.8-5.7,0.2-8.4c1.8-2.4,3.1-5.4,3.7-8.7
		c0.4-2.2,0.4-4.3,0.1-6.3c1.9-2.8,3-6.3,3-10.3c0-10.1-6.1-17.7-14.2-17.7h-18.4c0.2-4.1,0.2-9.6,0.2-16.8
		C107.6,16.3,97.8,10,89.4,10L89.4,10z"/>
	<path fill="#677089" d="M32.4,61.8v55H19l-9-55H32.4 M32.4,51.9H9.9c-2.9,0-5.7,1.3-7.6,3.5c-1.9,2.2-2.7,5.2-2.2,8l9,55
		c0.8,4.8,4.9,8.3,9.8,8.3h13.4c5.5,0,9.9-4.4,9.9-9.9v-55C42.3,56.3,37.9,51.9,32.4,51.9L32.4,51.9z"/>
</g>
</svg>
