<?xml version="1.0" encoding="utf-8"?>
<!-- Generator: Adobe Illustrator 19.2.1, SVG Export Plug-In . SVG Version: 6.00 Build 0)  -->
<!DOCTYPE svg PUBLIC "-//W3C//DTD SVG 1.1//EN" "http://www.w3.org/Graphics/SVG/1.1/DTD/svg11.dtd">
<svg version="1.1" id="Layer_1" xmlns="http://www.w3.org/2000/svg" xmlns:xlink="http://www.w3.org/1999/xlink" x="0px" y="0px"
	 viewBox="0 0 140 140" enable-background="new 0 0 140 140" xml:space="preserve">
<g>
	<circle fill="#FFFFFF" cx="50.9" cy="49.6" r="45.5"/>
	<path fill="#FFFFFF" d="M99.1,90.6L95.8,94c-2.2,2.2-2.2,5.8,0,7.9l26.8,26.8c2.2,2.2,5.8,2.2,7.9,0l3.4-3.4l-2.8,5.9l-8.4,6.9
		l-36-36.5l7.7-9.4L99.1,90.6z"/>
	<path fill="#677089" d="M50.2,100.5C22.5,100.5,0,78,0,50.2S22.5,0,50.2,0c27.7,0,50.3,22.5,50.3,50.2S78,100.5,50.2,100.5z
		 M50.2,8.2C27.1,8.2,8.2,27.1,8.2,50.2c0,23.2,18.9,42.1,42.1,42.1c23.2,0,42.1-18.9,42.1-42.1C92.3,27.1,73.4,8.2,50.2,8.2z"/>
	<path fill="#677089" d="M18.8,63.8c-0.7,0-1.4-0.4-1.6-1.1c-1.5-4-2.2-8.1-2.2-12.4c0-1,0.8-1.8,1.8-1.8s1.8,0.8,1.8,1.8
		c0,3.8,0.7,7.6,2,11.2c0.3,0.9-0.1,1.9-1,2.3C19.2,63.7,19,63.8,18.8,63.8z"/>
	<path fill="#677089" d="M17.5,44.5c-0.1,0-0.3,0-0.4,0c-0.9-0.2-1.5-1.2-1.3-2.1c3.7-16.2,17.9-27.4,34.4-27.4c1,0,1.8,0.8,1.8,1.8
		s-0.8,1.8-1.8,1.8c-14.9,0-27.7,10.2-31,24.7C19,43.9,18.3,44.5,17.5,44.5z"/>
	<path fill="#677089" d="M122.9,140c-2.3,0-4.4-0.9-6-2.5L87,107.6c-1.6-1.6-2.5-3.8-2.5-6c0-2.3,0.9-4.4,2.5-6l8.5-8.5
		c1.6-1.6,3.8-2.5,6-2.5c2.3,0,4.4,0.9,6,2.5l29.9,29.9c1.6,1.6,2.5,3.8,2.5,6c0,2.3-0.9,4.4-2.5,6l-8.5,8.5
		C127.4,139.1,125.2,140,122.9,140z M101.6,90.3c-0.7,0-1.4,0.3-1.9,0.8l-8.5,8.5c-0.5,0.5-0.8,1.2-0.8,1.9c0,0.7,0.3,1.4,0.8,1.9
		l29.9,29.9c1,1,2.8,1,3.8,0l8.5-8.5c0.5-0.5,0.8-1.2,0.8-1.9c0-0.7-0.3-1.4-0.8-1.9l-29.9-29.9C102.9,90.6,102.3,90.3,101.6,90.3z"
		/>
	<path fill="#677089" d="M89.1,99.4c-0.4,0-0.9-0.2-1.2-0.5L77.3,88.4c-0.7-0.7-0.7-1.8,0-2.5c0.7-0.7,1.8-0.7,2.5,0l10.5,10.5
		c0.7,0.7,0.7,1.8,0,2.5C90,99.3,89.5,99.4,89.1,99.4z"/>
	<path fill="#677089" d="M97.7,90.8c-0.4,0-0.9-0.2-1.2-0.5L86,79.8c-0.7-0.7-0.7-1.8,0-2.5c0.7-0.7,1.8-0.7,2.5,0l10.5,10.5
		c0.7,0.7,0.7,1.8,0,2.5C98.6,90.6,98.1,90.8,97.7,90.8z"/>
	<path fill="#677089" d="M105,123.8c-1,0-1.8-0.8-1.8-1.8V88.6c0-1,0.8-1.8,1.8-1.8s1.8,0.8,1.8,1.8v33.4
		C106.8,123,106,123.8,105,123.8z"/>
	<path fill="#677089" d="M119.1,136.8c-1,0-1.8-0.8-1.8-1.8v-33.4c0-1,0.8-1.8,1.8-1.8c1,0,1.8,0.8,1.8,1.8v33.4
		C120.8,136,120,136.8,119.1,136.8z"/>
</g>
</svg>
