<?xml version="1.0" encoding="utf-8"?>
<!-- Generator: Adobe Illustrator 19.2.0, SVG Export Plug-In . SVG Version: 6.00 Build 0)  -->
<!DOCTYPE svg PUBLIC "-//W3C//DTD SVG 1.1//EN" "http://www.w3.org/Graphics/SVG/1.1/DTD/svg11.dtd">
<svg version="1.1" id="Layer_1" xmlns="http://www.w3.org/2000/svg" xmlns:xlink="http://www.w3.org/1999/xlink" x="0px" y="0px"
	 viewBox="0 0 140 140" enable-background="new 0 0 140 140" xml:space="preserve">
<g>
	<path fill="#FFFFFF" d="M127.9,108.7c0.6,2-0.5,4.2-2.6,4.8L94,123c-2,0.6-4.2-0.5-4.8-2.6L71,60.6c-0.6-2,0.5-4.2,2.6-4.8
		l31.4-9.5c2-0.6,4.2,0.5,4.8,2.6L127.9,108.7z"/>
	<path fill="#FFFFFF" d="M86,45.5V22.3c0-3.8-3.1-6.8-6.8-6.8h-58c-3.8,0-6.8,3.1-6.8,6.8v78.4c0,3.8,3.1,6.8,6.8,6.8h58L64.9,57.6
		c0,0-2.9-5.5,5.3-7.5C78.5,48.1,86,45.5,86,45.5z"/>
	<path fill="#677089" d="M90.7,139c-2.9,0-5.7-1.9-6.6-4.9L61,57.6c-0.5-1.8-0.3-3.6,0.5-5.2c0.9-1.6,2.3-2.8,4.1-3.3L108,36.2
		c1.8-0.5,3.6-0.3,5.2,0.5c1.6,0.9,2.8,2.3,3.3,4.1l23.2,76.5h0c1.1,3.6-1,7.4-4.6,8.5l-42.5,12.9C92,138.9,91.4,139,90.7,139z
		 M110,41.9c-0.1,0-0.2,0-0.3,0L67.3,54.8c-0.3,0.1-0.4,0.3-0.5,0.4c-0.1,0.1-0.2,0.4-0.1,0.7l23.2,76.5c0.1,0.5,0.6,0.7,1.1,0.6
		l42.5-12.9c0.5-0.1,0.7-0.6,0.6-1.1h0l-23.2-76.5c-0.1-0.3-0.3-0.4-0.4-0.5C110.3,41.9,110.1,41.9,110,41.9z"/>
	<path fill="#677089" d="M92.9,124.4c-2.2,0-4.2-1.4-4.8-3.6L69.9,61c-0.4-1.3-0.3-2.7,0.4-3.8c0.6-1.2,1.7-2.1,3-2.5l31.4-9.5
		c2.7-0.8,5.5,0.7,6.3,3.4l18.1,59.9c0.8,2.7-0.7,5.5-3.4,6.3l-31.4,9.5C93.9,124.3,93.4,124.4,92.9,124.4z M106.1,47.3
		c-0.3,0-0.5,0-0.8,0.1L74,56.9c-0.7,0.2-1.2,0.7-1.6,1.3c-0.3,0.6-0.4,1.3-0.2,2l18.1,59.9c0.4,1.4,1.9,2.2,3.3,1.8l31.4-9.5
		c1.4-0.4,2.2-1.9,1.8-3.3l-18.1-59.9C108.3,48.1,107.3,47.3,106.1,47.3z"/>
	<path fill="#677089" d="M111.2,126.7c-1.5,0-2.9-1-3.3-2.5c-0.3-0.9-0.2-1.8,0.3-2.7c0.4-0.8,1.2-1.4,2.1-1.7
		c1.8-0.6,3.8,0.5,4.4,2.3v0c0.3,0.9,0.2,1.8-0.3,2.7c-0.4,0.8-1.2,1.4-2.1,1.7C111.8,126.6,111.5,126.7,111.2,126.7z M111.2,120.9
		c-0.2,0-0.4,0-0.7,0.1c-0.6,0.2-1.1,0.6-1.4,1.1c-0.3,0.5-0.3,1.2-0.2,1.7c0.4,1.2,1.6,1.9,2.9,1.5c0.6-0.2,1.1-0.6,1.4-1.1
		c0.3-0.5,0.4-1.2,0.2-1.7C113.1,121.5,112.2,120.9,111.2,120.9z"/>
	<path fill="#677089" d="M86,132.1H11c-6.1,0-11-4.9-11-11V12.1C0,6,4.9,1,11,1h78.4c6.1,0,11,4.9,11,11v30.3H92V12.1
		c0-1.5-1.2-2.6-2.6-2.6H11c-1.5,0-2.6,1.2-2.6,2.6v109.1c0,1.5,1.2,2.6,2.6,2.6h75V132.1z"/>
	<path fill="#677089" d="M79.2,109.3h-58c-4.7,0-8.6-3.9-8.6-8.6V22.3c0-4.7,3.9-8.6,8.6-8.6h58c4.7,0,8.6,3.9,8.6,8.6v23.2h-3.6
		V22.3c0-2.8-2.3-5-5-5h-58c-2.8,0-5,2.3-5,5v78.4c0,2.8,2.3,5,5,5h58V109.3z"/>
	<path fill="#677089" d="M50.2,123.5c-3.8,0-6.9-3.1-6.9-6.9c0-3.8,3.1-6.9,6.9-6.9c3.8,0,6.9,3.1,6.9,6.9
		C57.1,120.4,54,123.5,50.2,123.5z M50.2,113.2c-1.8,0-3.3,1.5-3.3,3.3c0,1.8,1.5,3.3,3.3,3.3c1.8,0,3.3-1.5,3.3-3.3
		C53.5,114.7,52,113.2,50.2,113.2z"/>
</g>
</svg>
