<?xml version="1.0" encoding="utf-8"?>
<!-- Generator: Adobe Illustrator 19.2.0, SVG Export Plug-In . SVG Version: 6.00 Build 0)  -->
<!DOCTYPE svg PUBLIC "-//W3C//DTD SVG 1.1//EN" "http://www.w3.org/Graphics/SVG/1.1/DTD/svg11.dtd">
<svg version="1.1" id="Layer_1" xmlns="http://www.w3.org/2000/svg" xmlns:xlink="http://www.w3.org/1999/xlink" x="0px" y="0px"
	 viewBox="0 0 140 140" enable-background="new 0 0 140 140" xml:space="preserve">
<g>
	<path fill="#FFFFFF" d="M43.8,115.4c0,4.5-3.6,8.1-8.1,8.1h-19c-4.5,0-8.1-3.6-8.1-8.1V75.8c0-4.5,3.6-8.1,8.1-8.1h19
		c4.5,0,8.1,3.6,8.1,8.1C43.8,75.8,43.8,115.4,43.8,115.4z"/>
	<path fill="#FFFFFF" d="M87.6,115.4c0,4.5-3.6,8.1-8.1,8.1h-19c-4.5,0-8.1-3.6-8.1-8.1V8.4c0-4.5,3.6-8.1,8.1-8.1h19
		c4.5,0,8.1,3.6,8.1,8.1V115.4z"/>
	<path fill="#FFFFFF" d="M131.4,115.4c0,4.5-3.6,8.1-8.1,8.1h-19c-4.5,0-8.1-3.6-8.1-8.1v-76c0-4.5,3.6-8.1,8.1-8.1h19
		c4.5,0,8.1,3.6,8.1,8.1V115.4z"/>
	<path fill="#677089" d="M43.8,131.6c0,4.5-3.6,8.1-8.1,8.1h-19c-4.5,0-8.1-3.6-8.1-8.1V92c0-4.5,3.6-8.1,8.1-8.1h19
		c4.5,0,8.1,3.6,8.1,8.1C43.8,92,43.8,131.6,43.8,131.6z"/>
	<path fill="#677089" d="M87.6,131.6c0,4.5-3.6,8.1-8.1,8.1h-19c-4.5,0-8.1-3.6-8.1-8.1v-107c0-4.5,3.6-8.1,8.1-8.1h19
		c4.5,0,8.1,3.6,8.1,8.1V131.6z"/>
	<path fill="#677089" d="M131.4,131.6c0,4.5-3.6,8.1-8.1,8.1h-19c-4.5,0-8.1-3.6-8.1-8.1v-76c0-4.5,3.6-8.1,8.1-8.1h19
		c4.5,0,8.1,3.6,8.1,8.1V131.6z"/>
</g>
</svg>
