<?xml version="1.0" encoding="utf-8"?>
<!-- Generator: Adobe Illustrator 19.2.0, SVG Export Plug-In . SVG Version: 6.00 Build 0)  -->
<!DOCTYPE svg PUBLIC "-//W3C//DTD SVG 1.1//EN" "http://www.w3.org/Graphics/SVG/1.1/DTD/svg11.dtd">
<svg version="1.1" id="Layer_1" xmlns="http://www.w3.org/2000/svg" xmlns:xlink="http://www.w3.org/1999/xlink" x="0px" y="0px"
	 viewBox="0 0 800 574.8" enable-background="new 0 0 800 574.8" xml:space="preserve">
<g>
	<path fill="#90A5A5" d="M368.7,115.6l31,175.4l-70.1,221.2c0,0-41.3-14.5-84.7-15.2s-66.6-33.3-80.4-55
		c-13.8-21.7-44.2-57.2-73.2-77.5c-14.1-9.8-33.5-28.3-50.9-49.6c9.4-8.2,16.8-19,16.8-19s-6.4,7.4-19.2,16.1
		c-0.1-0.1-0.2-0.3-0.3-0.4c0.7-1,1.3-2.7,1-3.8c1.4-1.1,9.1-8.1,16.3-16.1c2-2.1,3.8-4,5.2-5.7c-10.1,7-20.4,11-25,13.2
		c-5.1,2.4-3.8,0.1-3.5-0.3c0,0,0,0.1-0.1,0.1c-0.7,1-2.4,1.2-2.4,1.2s1.1-1.1,0.6-2.3c-0.4-1,7.7-4.2,14.9-9.1
		c-5.8,1.9-12.6,3.8-20.1,5.1c-11.4-16.8-20.2-34-23.4-49.4c-8.9-42.5,34.6-84.7,51.3-102.4c16.7-17.7,37.6-59.1,59.3-72.6
		c21.7-13.6,54.3-31.3,93.4-49.4S279.7-7,307.9,6.7C336.2,20.4,355.7,65.4,368.7,115.6z M793.7,211c-10.9-13.7-36.9-47.2-55-79.8
		c-18.1-32.6-60.1-61.5-120.2-88.2C558.4,16.5,538.1,9,518.6,14.7c-19.5,5.8-57.2,42-76,90.3l-42.8,144.7c0,0,67.4,267.4,87,250.7
		s62.3-10.9,90.5-17.4s39.1-39.1,48.5-63c3.7-9.5,14.1-20.5,26.4-30.8c-0.2-23.3-1.5-48.8-4.5-59.9c8,16.1,10.7,36.5,13.7,52.4
		c15.3-11.7,31.6-21.7,41.1-26.6c-5.4-32.2-16.3-69.2-16.3-83.9c5,22.3,13.5,39.8,20.4,56.3c-5.9-19.9-11.2-32.6-11.2-32.6
		s9.3,21.4,12.5,28.5c2.6,5.8,6.8,16.2,8.5,23.2c12.2-9.2,25.4-23.3,44.1-40.3c-5.3-9-12-16.8-12-16.8s9.4,9.1,14,15
		c3-2.7,6.1-5.4,9.4-8.2C803.8,269,804.5,224.7,793.7,211z"/>
	<path fill="#7D9190" d="M331.6,128.3C315,66.7,275.8,54.9,220.1,76.4s-81.2,59.7-104.7,74.4s-47,69.5-35.2,85.1s42.1,46,72.4,55.8
		s46,12.7,59.7,21.5s-2,129.1,80.2,76.3S331.6,128.3,331.6,128.3z"/>
	<path fill="#7D9190" d="M511.6,381.7c35.2,12.7,59.7,12.7,82.2-38.2s7.8-67.5,35.2-79.2c27.4-11.7,113.5-41.1,83.2-75.3
		c-30.3-34.2-85.1-41.1-116.4-85.1c-18.1-25.4-57.7-60.7-125.2,0S511.6,381.7,511.6,381.7z"/>
	<path fill="#647776" d="M334.5,496.6l-4.9,15.4c0,0,0,0,0,0c0,0,0,0,0,0c0,0,0,0,0,0c0,0,0,0-0.1,0c0,0-0.1,0-0.1,0c0,0,0,0-0.1,0
		c0,0-0.1,0-0.1,0c0,0-0.1,0-0.1,0c-0.1,0-0.1,0-0.2-0.1c0,0-0.1,0-0.1,0c0,0-0.1,0-0.1,0c-0.1,0-0.2-0.1-0.3-0.1c0,0-0.1,0-0.1,0
		c-0.1,0-0.1,0-0.2-0.1c0,0-0.1,0-0.1,0c-0.1,0-0.3-0.1-0.4-0.1c-0.1,0-0.1,0-0.2-0.1c-0.1,0-0.2-0.1-0.3-0.1c-0.1,0-0.1,0-0.2-0.1
		c-0.3-0.1-0.7-0.2-1-0.3c0,0-0.1,0-0.1,0c-0.4-0.1-0.8-0.3-1.3-0.4c0,0-0.1,0-0.1,0c-0.5-0.1-1-0.3-1.5-0.5c0,0-0.1,0-0.1,0
		c-0.5-0.2-1.1-0.3-1.7-0.5c0,0-0.1,0-0.1,0c-0.6-0.2-1.2-0.4-1.9-0.6c0,0,0,0,0,0c-0.7-0.2-1.4-0.4-2.1-0.6c0,0,0,0,0,0
		c-3.2-0.9-6.9-1.9-11.1-2.9c0,0,0,0,0,0c-1-0.2-1.9-0.5-2.9-0.7c0,0,0,0-0.1,0c-1-0.2-2-0.5-3-0.7c0,0-0.1,0-0.1,0
		c-1-0.2-2-0.4-3-0.7c-0.1,0-0.1,0-0.2,0c-1-0.2-2-0.4-3.1-0.6c-0.1,0-0.2,0-0.3-0.1c-1-0.2-2.1-0.4-3.1-0.6c-0.1,0-0.2,0-0.4-0.1
		c-1-0.2-2.1-0.4-3.1-0.6c-0.1,0-0.3-0.1-0.4-0.1c-0.3-0.1-0.7-0.1-1-0.2c2.9-9.8,9.9-21,9.9-21c-10.9,7.3-24.4,13.3-35.6,17.6
		c0,0,0,0,0,0c-1.2-0.1-2.3-0.2-3.5-0.3c-0.1,0-0.2,0-0.3,0c-1.1-0.1-2.2-0.1-3.4-0.2c-0.1,0-0.3,0-0.4,0c-1.1-0.1-2.2-0.1-3.3-0.1
		c-0.1,0-0.2,0-0.3,0c-1.1,0-2.3-0.1-3.4-0.1c-0.6,0-1.2,0-1.8-0.1c-0.2,0-0.4,0-0.6,0c-0.4,0-0.8,0-1.2-0.1c-0.2,0-0.4,0-0.7,0
		c-0.4,0-0.8-0.1-1.2-0.1c-0.2,0-0.4,0-0.6-0.1c-0.5,0-1-0.1-1.5-0.1c-0.2,0-0.4,0-0.6-0.1c-0.4,0-0.8-0.1-1.3-0.2
		c-0.3,0-0.5-0.1-0.8-0.1c-0.3,0-0.6-0.1-0.9-0.1c-0.3,0-0.6-0.1-0.9-0.1c-0.3,0-0.5-0.1-0.8-0.1c-0.3-0.1-0.6-0.1-0.9-0.2
		c-0.2,0-0.4-0.1-0.6-0.1c-0.7-0.1-1.3-0.3-2-0.4c-0.1,0-0.3-0.1-0.4-0.1c-0.4-0.1-0.7-0.2-1.1-0.3c-0.2,0-0.3-0.1-0.5-0.1
		c-0.4-0.1-0.7-0.2-1.1-0.3c-0.1,0-0.2-0.1-0.4-0.1c-1.3-0.4-2.6-0.7-3.8-1.1l57.9-76.2c0,0-10.4-9.2-9.4-18.3
		c1-9.2-1.9-22.9-8.7-43c-6.8-20,4.1-43.4,4.1-43.4s-11.3-9.9-11.6-24.6c-0.2-14.7,16.9-43.4,22.4-52.8c0.4-0.7,0.8-1.5,1.3-2.3
		c-19.1-46.4,21.9-118.4,29.4-129.9c7.6-11.6,22.8-14.1,50.7-19.9c0.4-0.1,0.8-0.2,1.2-0.2c3.7,10.6,7,21.9,10,33.4l24.6,138.7
		c-7.8,0.4-15.5,0.7-23.1,0.9c-9.2,62.1-18.4,124.5-18.4,124.5L334.5,496.6z M488.1,499.4c0.3-0.2,0.5-0.4,0.8-0.6
		c0.1-0.1,0.3-0.2,0.4-0.3c0.3-0.2,0.5-0.4,0.8-0.5c0.1-0.1,0.3-0.2,0.4-0.2c0.3-0.2,0.6-0.4,0.9-0.6c0.1,0,0.2-0.1,0.2-0.1
		c0.4-0.2,0.8-0.5,1.3-0.7c0.1,0,0.1-0.1,0.2-0.1c0.4-0.2,0.7-0.4,1.1-0.6c0.1-0.1,0.2-0.1,0.3-0.2c0.3-0.2,0.7-0.3,1-0.5
		c0.1-0.1,0.2-0.1,0.4-0.2c0.4-0.2,0.7-0.3,1.1-0.5c0.1,0,0.2-0.1,0.2-0.1c1-0.4,1.9-0.8,2.9-1.1c0,0,0,0,0.1,0
		c0.5-0.2,0.9-0.3,1.4-0.5c0.1,0,0.1,0,0.2-0.1c0.5-0.1,0.9-0.3,1.4-0.4c0,0,0.1,0,0.1,0c2.1-0.6,4.3-1.2,6.6-1.6
		c-2.8-10.7-2.6-25.2-2.6-25.2s11.7,10.8,31.1,21.9c0,0,0,0,0,0c1.6-0.1,3.3-0.2,4.9-0.3c0.5,0,1-0.1,1.5-0.1c0,0,0.1,0,0.1,0
		c6.5-0.4,12.9-0.9,19.1-1.6c2.9-10.7-0.9-29.4-9.3-45.2c-14.5-27.5-8.7-69.1-6.2-86.1c2.5-17,7.2-29-1.1-51.4
		c15.2-15.6,9.4-31.5-7.6-60.4c-2.9-4.9-5.5-9.4-7.9-13.7c4.3-16.1,3.3-40.2-6.2-75.4c-11.6-43.1-14.5-52.5-40.9-63.3
		c-10.2-4.2-21-7.4-30.4-9.7c-4.5,7.9-8.5,16.3-11.9,25.1l-42.8,144.7c0,0,0.4,1.4,1,4c15.4-1,30.8-2.4,45.4-4.1l25,149l9.7,100.2
		c0.4,0.4,0.8,0.8,1.2,1.1c0,0,0,0,0,0c0.4,0.3,0.8,0.5,1.2,0.7c0,0,0,0,0,0c0.2,0.1,0.5,0.2,0.7,0.3c0,0,0,0,0,0
		c0.1,0,0.2,0,0.3,0.1c0,0,0,0,0.1,0c0.1,0,0.2,0,0.3,0c0,0,0,0,0,0c0.1,0,0.2,0,0.3,0c0,0,0,0,0.1,0c0.1,0,0.2,0,0.3,0
		c0,0,0.1,0,0.1,0c0.1,0,0.2-0.1,0.3-0.1c0,0,0,0,0,0c0.1,0,0.2-0.1,0.3-0.1c0,0,0.1,0,0.1,0c0.1,0,0.1-0.1,0.2-0.1
		c0,0,0.1,0,0.1-0.1c0.1-0.1,0.2-0.1,0.3-0.2c0.3-0.3,0.7-0.6,1.1-0.9C487.9,499.6,488,499.5,488.1,499.4z"/>
	<path fill="none" stroke="#FFFFFF" stroke-miterlimit="10" d="M475.9,93.9c27.5-22.4,58.4-39.8,87.8-28.2s29.4,36.7,55,58.6
		c25.6,22,114.9,50.7,112.5,80.1c-2.4,29.4-52.1,39.8-84.5,57.2c-32.3,17.4-31.1,46.6-42.5,78.2c-13.3,36.9-28.7,97.7-81.1,87.1"/>
	<path fill="none" stroke="#FFFFFF" stroke-miterlimit="10" d="M332.2,103.1c-25.3-32.9-40.5-66.6-116.9-34.7S48.4,182.7,51.7,231.2
		s65.5,53.2,101,65.5s42,27.9,52.5,61.9c10.5,34,25.3,87.6,65.5,94.1"/>
	<g opacity="5.000000e-02">
		<path fill="none" stroke="#FFFFFF" stroke-miterlimit="10" d="M475.9,93.9c27.5-22.4,58.4-39.8,87.8-28.2s29.4,36.7,55,58.6
			c25.6,22,114.9,50.7,112.5,80.1c-2.4,29.4-52.1,39.8-84.5,57.2c-32.3,17.4-31.1,46.6-42.5,78.2c-13.3,36.9-28.7,97.7-81.1,87.1"/>
		<path fill="none" stroke="#FFFFFF" stroke-miterlimit="10" d="M332.2,103.1c-25.3-32.9-40.5-66.6-116.9-34.7
			S48.4,182.7,51.7,231.2s65.5,53.2,101,65.5s42,27.9,52.5,61.9c10.5,34,25.3,87.6,65.5,94.1"/>
	</g>
	<path opacity="0.6" fill="none" stroke="#FFFFFF" stroke-miterlimit="10" d="M329.2,95.6c-16.2-22.9-41.7-57.9-67.1-60.8
		s-72.2,40.5-104.7,62s-128.1,91.9-118,145.5c2.2,16.4,15.9,37.9,15.9,37.9s6.5-0.2,12.8-4.8c-0.7,8-7.7,17.1-7.7,17.1
		s22.9,8.2,65.4,15s63.9,26.5,70.9,41.3s22.4,101.6,53.6,120.7"/>
	<path opacity="0.6" fill="none" stroke="#FFFFFF" stroke-miterlimit="10" d="M474.8,92.2c25-23.9,73.8-56.1,102.1-42.7
		c28.2,13.4,123.1,94.5,151.3,115.8c28.2,21.4,43.8,58.3-0.7,97.4c-18.8,15.9-31.1,21.7-31.1,21.7s-7.6-12.3-10.9-32.9
		c-5.1,11.9-6.2,36.6-3.6,47.8c0,0-7.6-5.8-13-18.1c-32.6,6.9-50.3,42.4-69.9,92.7c-19.5,50.3-38.4,78.2-50.3,84.7"/>
	<path fill="none" stroke="#647776" stroke-miterlimit="10" d="M485.7,92.8c19.8-13.6,53.6-25.9,79.3-9.3s36.1,38.5,68,56.9
		c31.9,18.4,59.7,44.1,53.6,61.9s-70.1,37.2-81.4,89.2s-46.4,88.8-63.7,78.9"/>
	<path fill="none" stroke="#647776" stroke-miterlimit="10" d="M316.4,97.1c-15.3-19.9-57-35.6-106.4-8.5s-49.4,52.5-72.2,77.3
		s-47.4,54.8-18.8,83.8s97,35.6,107.9,60.9c10.9,25.3,15,78.1,46.3,67.3"/>
	<path fill="#97AEAF" d="M526.6,286.2l-240.5,8.5c-22.4,18.5-21,41.8-16.3,53.7c4.7,11.9,15.7,32.2,8.1,45.6l258.8-2.6
		c-7.6-13.4-2.5-31.5,2.2-43.4S549,304.7,526.6,286.2z"/>
	<g>
		<path fill="#647776" d="M540.8,304.6c-3.1-1.2-7,1.4-7,1.4s2.7,16.4-7,26.8c-9.7,10.4,2.2,36.9,8.7,48.5c6.5,11.6-7.7,13-7.7,13
			l-30.2-74.8l39.8-32.3L540.8,304.6z"/>
		<path fill="#647776" d="M270.5,312.3c3.6-1.3,7.2,0,9,1.1c0.5,7.1,3.6,17.2,12.5,25.3c8.9,8.1,3.1,21.4,3.1,21.4l18.3-35.7
			l-40.9-24.3L270.5,312.3z"/>
	</g>
	<path d="M529.1,301.4c10.9,19.2-14.8,39.8-14.8,39.8l-8-20.3L529.1,301.4z"/>
	<path d="M283.9,305.9c-7.5,20.7,21.2,36.8,21.2,36.8l4.5-21.3L283.9,305.9z"/>
	<path d="M527.8,302.6c11.8-3.6,15.2-6.8,15.2-6.8s-3.1,3.9-9.7,6.8l8.7-2.7c0,0-6.3,4.3-9.9,4.6c5.8,1.7,5.8,1.7,5.8,1.7
		s-9.2-0.7-10.1,3.4C526.8,313.7,527.8,302.6,527.8,302.6z"/>
	<path d="M285.5,311.9c-11.8-3.6-16.5-5.7-16.5-5.7s4.5,2.8,11,5.7l-9-0.1c0,0,6.6,1.8,10.2,2.1c-4.1,0.3-5.8,1.7-5.8,1.7
		s9.2-0.7,10.1,3.4C286.5,323,285.5,311.9,285.5,311.9z"/>
	<path fill="#AAC1C1" d="M280.4,226.6c-13-25.4,13.8-122.9,40.9-132.2c28.2-9.6,81.4-19,105.9-16.3c24.4,2.7,69.2,11.4,80.5,32.9
		c5.8,11.1,30.3,89.8,19.6,112.1c-19.4-33.6-34.1-78.6-38.2-105.3c3.8,37.5,21.4,81,32.3,101.5c17.6,33.3,37.2,49.9,23.5,69.5
		c-16.1,23-59,44-61.7,70.1c0,0-134.6,17.4-150.9-5.4c-16.3-22.8-31.5-31.5-44-38s-39.1-21.2-22.8-53.7s56.5-103.7,60.8-129.2
		C326.2,132.4,321.7,150.8,280.4,226.6z"/>
	<path opacity="0.28" fill="#FFFFFF" d="M428.7,172.4c-2,0-3.6-1.6-3.6-3.6c0-2,1.6-3.6,3.6-3.6c2,0,3.6,1.6,3.6,3.6
		C432.4,170.7,430.7,172.4,428.7,172.4z M432.3,158.2c2.1,0,3.8-1.7,3.8-3.8c0-2.1-1.7-3.8-3.8-3.8c-2.1,0-3.8,1.7-3.8,3.8
		C428.5,156.5,430.2,158.2,432.3,158.2z M433.4,182.7c0.2-0.5,0.4-1,0.4-1.6c0-2.1-1.7-3.7-3.7-3.7c-2.1,0-3.7,1.7-3.7,3.7
		c0,2.1,1.7,3.7,3.7,3.7c0.5,0,0.9-0.1,1.3-0.2c-0.4,0.7-0.7,1.6-0.7,2.5c0,2.7,2.2,4.9,4.9,4.9s4.9-2.2,4.9-4.9s-2.2-4.9-4.9-4.9
		C434.8,182.2,434.1,182.4,433.4,182.7z M420.4,160.9c0,2.2,1.8,3.9,3.9,3.9c2.2,0,3.9-1.8,3.9-3.9c0-2.2-1.8-3.9-3.9-3.9
		C422.1,157,420.4,158.7,420.4,160.9z M400.8,195.4c1.6,0,3-1.3,3-3c0-1.6-1.3-3-3-3c-1.6,0-3,1.3-3,3
		C397.9,194.1,399.2,195.4,400.8,195.4z M410.8,160.1c2.4,0,4.4-2,4.4-4.4c0-2.4-2-4.4-4.4-4.4s-4.4,2-4.4,4.4
		C406.5,158.1,408.4,160.1,410.8,160.1z M414.7,140.4c1.9,0,3.4-1.5,3.4-3.4c0-1.9-1.5-3.4-3.4-3.4c-1.9,0-3.4,1.5-3.4,3.4
		C411.3,138.9,412.8,140.4,414.7,140.4z M421.5,186c2.3,0,4.2-1.9,4.2-4.2c0-2.3-1.9-4.2-4.2-4.2c-2.3,0-4.2,1.9-4.2,4.2
		C417.4,184.2,419.2,186,421.5,186z M422.4,139.2c1.7,0,3.1-1.4,3.1-3.1c0-1.7-1.4-3.1-3.1-3.1c-1.7,0-3.1,1.4-3.1,3.1
		C419.3,137.8,420.7,139.2,422.4,139.2z M380.2,195.5c0,3.1,2.5,5.5,5.5,5.5c3.1,0,5.5-2.5,5.5-5.5c0-0.1,0-0.2,0-0.3
		c0.4,0.1,0.7,0.2,1.2,0.2c1.9,0,3.4-1.5,3.4-3.4s-1.5-3.4-3.4-3.4c-1.6,0-2.9,1.1-3.2,2.5c-0.9-0.7-2.1-1.2-3.4-1.2
		C382.7,189.9,380.2,192.4,380.2,195.5z M382.5,173.4c2.6,0,4.6-2.1,4.6-4.6c0-2.6-2.1-4.6-4.6-4.6c-2.6,0-4.6,2.1-4.6,4.6
		C377.8,171.3,379.9,173.4,382.5,173.4z M402.9,170c0-1.2-1-2.2-2.2-2.2s-2.2,1-2.2,2.2s1,2.2,2.2,2.2S402.9,171.1,402.9,170z
		 M464.2,224.9c3.4,0,6.2-2.8,6.2-6.2c0-3.4-2.8-6.2-6.2-6.2c-3.4,0-6.2,2.8-6.2,6.2C458,222.1,460.8,224.9,464.2,224.9z
		 M392.1,168.7c1.5,0,2.8-1.2,2.8-2.8c0-1.5-1.2-2.7-2.8-2.7c-1.5,0-2.7,1.2-2.7,2.7C389.3,167.5,390.6,168.7,392.1,168.7z
		 M362.6,221.7c0,1.5,1.3,2.8,2.8,2.8c1.5,0,2.8-1.3,2.8-2.8s-1.3-2.8-2.8-2.8C363.8,218.9,362.6,220.2,362.6,221.7z M361.3,234
		c0,1.4,1.1,2.5,2.5,2.5c1.4,0,2.5-1.1,2.5-2.5c0-1.4-1.1-2.5-2.5-2.5C362.4,231.6,361.3,232.7,361.3,234z M371.6,203.6
		c3,0,5.4-2.4,5.4-5.4c0-3-2.4-5.4-5.4-5.4s-5.4,2.4-5.4,5.4C366.2,201.2,368.6,203.6,371.6,203.6z M407.4,191.7
		c2.4,0,4.4-2,4.4-4.4c0-2.4-2-4.4-4.4-4.4s-4.4,2-4.4,4.4C403.1,189.8,405,191.7,407.4,191.7z M409,175c1.1,0,2-0.9,2-2s-0.9-2-2-2
		s-2,0.9-2,2S407.9,175,409,175z M402.8,164.4c1.2,0,2.1-1,2.1-2.1s-1-2.1-2.1-2.1c-1.2,0-2.1,1-2.1,2.1S401.6,164.4,402.8,164.4z
		 M397.6,162.3c1.3,0,2.4-1.1,2.4-2.4c0-1.3-1.1-2.4-2.4-2.4c-1.3,0-2.4,1.1-2.4,2.4C395.2,161.2,396.3,162.3,397.6,162.3z
		 M396.7,176c1.1,0,2.1-0.9,2.1-2.1s-0.9-2.1-2.1-2.1s-2.1,0.9-2.1,2.1S395.5,176,396.7,176z M523.6,244.1c0-2.7-2.2-4.9-4.9-4.9
		c-2.7,0-4.9,2.2-4.9,4.9c0,2.7,2.2,4.9,4.9,4.9C521.4,249,523.6,246.8,523.6,244.1z M510.4,234.3c0,2.8,2.3,5.1,5.1,5.1
		c2.8,0,5.1-2.3,5.1-5.1c0-2.8-2.3-5.1-5.1-5.1C512.7,229.1,510.4,231.4,510.4,234.3z M530,250.3c0-2.3-1.9-4.2-4.2-4.2
		s-4.2,1.9-4.2,4.2s1.9,4.2,4.2,4.2S530,252.6,530,250.3z M507.6,223.5c0,2.8,2.3,5.1,5.1,5.1c2.8,0,5.1-2.3,5.1-5.1
		s-2.3-5.1-5.1-5.1C509.9,218.4,507.6,220.7,507.6,223.5z M361.9,218.4c1.5,0,2.6-1.2,2.6-2.6c0-1.5-1.2-2.6-2.6-2.6
		c-1.5,0-2.6,1.2-2.6,2.6C359.2,217.2,360.4,218.4,361.9,218.4z M512.4,256.9c0-2.8-2.2-5-5-5c-2.8,0-5,2.2-5,5
		c0,0.5,0.1,1.1,0.3,1.6c-1.7,0.8-2.9,2.5-2.9,4.5c0,2.7,2.2,4.9,4.9,4.9s4.9-2.2,4.9-4.9c0-0.5-0.1-1-0.2-1.5
		C511.2,260.7,512.4,258.9,512.4,256.9z M521.8,271.1c2.3,0,4.1-1.9,4.1-4.1c0-2.3-1.9-4.1-4.1-4.1s-4.1,1.9-4.1,4.1
		C517.7,269.3,519.5,271.1,521.8,271.1z M537.2,257c0.8,0,1.5-0.3,2-0.9c0.3,1,1.2,1.8,2.4,1.8c0.9,0,1.6-0.4,2-1.1
		c-0.7-1.2-1.4-2.5-2.1-3.8c-0.6,0-1.2,0.3-1.6,0.7c-0.3-1.3-1.4-2.2-2.7-2.2c-1.5,0-2.8,1.2-2.8,2.8
		C534.4,255.7,535.7,257,537.2,257z M513,214.4c0-2.6-2.1-4.7-4.7-4.7s-4.7,2.1-4.7,4.7c0,2.6,2.1,4.7,4.7,4.7S513,217,513,214.4z
		 M537.8,250.2c0.6,0,1.2-0.2,1.7-0.5c-1.1-1.9-2.3-3.8-3.6-5.8c-0.9,0.6-1.5,1.7-1.5,2.9C534.4,248.6,536,250.2,537.8,250.2z
		 M533.3,261.9c1.4,0,2.5-1.1,2.5-2.5c0-1.4-1.1-2.5-2.5-2.5s-2.5,1.1-2.5,2.5C530.8,260.7,531.9,261.9,533.3,261.9z M495.2,255.5
		c3.3,0,5.9-2.6,5.9-5.9c0-3.3-2.6-5.9-5.9-5.9c-3.3,0-5.9,2.6-5.9,5.9C489.4,252.8,492,255.5,495.2,255.5z M478.7,147.3
		c1.2,0,2.1-0.9,2.1-2.1c0-1.2-0.9-2.1-2.1-2.1s-2.1,0.9-2.1,2.1C476.6,146.4,477.6,147.3,478.7,147.3z M478.4,161.9
		c0,1.2,1,2.2,2.2,2.2s2.2-1,2.2-2.2s-1-2.2-2.2-2.2S478.4,160.7,478.4,161.9z M476.7,152c1.1,0,2-0.9,2-2c0-1.1-0.9-2-2-2
		c-1.1,0-2,0.9-2,2C474.6,151.1,475.5,152,476.7,152z M475.8,260.3c3.4,0,6.2-2.8,6.2-6.2c0-3.4-2.8-6.2-6.2-6.2s-6.2,2.8-6.2,6.2
		C469.6,257.5,472.4,260.3,475.8,260.3z M479.2,172.2c0,1.5,1.2,2.8,2.8,2.8c1.5,0,2.8-1.2,2.8-2.8c0-1.5-1.2-2.8-2.8-2.8
		C480.5,169.5,479.2,170.7,479.2,172.2z M472.8,268.4c0,1.6,1.3,2.9,2.9,2.9c1.6,0,2.9-1.3,2.9-2.9s-1.3-2.9-2.9-2.9
		C474,265.5,472.8,266.8,472.8,268.4z M501.5,202.8c2.1,0,3.9-1.7,3.9-3.9s-1.7-3.9-3.9-3.9c-2.1,0-3.9,1.7-3.9,3.9
		S499.3,202.8,501.5,202.8z M510.5,209.5c2,0,3.6-1.6,3.6-3.6s-1.6-3.6-3.6-3.6s-3.6,1.6-3.6,3.6S508.5,209.5,510.5,209.5z
		 M493.9,192.6c1.9,0,3.4-1.5,3.4-3.4c0-1.9-1.5-3.4-3.4-3.4s-3.4,1.5-3.4,3.4C490.5,191.1,492,192.6,493.9,192.6z M495.5,241.5
		c3.2,0,5.9-2.5,6.1-5.7c3.2-0.2,5.7-2.8,5.7-6.1c0-3.4-2.7-6.1-6.1-6.1c-3.2,0-5.8,2.5-6.1,5.6c-3.2,0.2-5.8,2.8-5.8,6.1
		C489.4,238.8,492.2,241.5,495.5,241.5z M525.6,237.5c1.9,0,3.4-1.5,3.4-3.4c0-1.9-1.5-3.4-3.4-3.4s-3.4,1.5-3.4,3.4
		C522.1,236,523.7,237.5,525.6,237.5z M411.7,277.6c0-1.8-1.4-3.2-3.2-3.2s-3.2,1.4-3.2,3.2c0,1.8,1.4,3.2,3.2,3.2
		S411.7,279.3,411.7,277.6z M409.1,281.6c-1.5,0-2.7,1.2-2.7,2.7c0,1.5,1.2,2.7,2.7,2.7c1.5,0,2.7-1.2,2.7-2.7
		C411.8,282.8,410.6,281.6,409.1,281.6z M341.9,263.8c-0.4,0-0.9,0.1-1.3,0.2c0.9-1.1,1.5-2.5,1.5-4c0-3.4-2.7-6.1-6.1-6.1
		c-3.4,0-6.1,2.7-6.1,6.1s2.7,6.1,6.1,6.1c0.7,0,1.4-0.1,2.1-0.4c-0.6,0.8-0.9,1.7-0.9,2.8c0,2.6,2.1,4.7,4.7,4.7
		c2.6,0,4.7-2.1,4.7-4.7C346.5,265.9,344.4,263.8,341.9,263.8z M473.1,294.2c-3.4,0-6.2,2.8-6.2,6.2c0,3.4,2.8,6.2,6.2,6.2
		c3.4,0,6.2-2.8,6.2-6.2C479.3,297,476.5,294.2,473.1,294.2z M464.8,288.3c-2.5,0-4.7-1.5-5.6-3.7c-0.6,2.7-3,4.7-5.8,4.7
		c-3.3,0-6-2.7-6-6c0-0.8,0.2-1.6,0.5-2.3c-0.9-0.1-1.7-0.3-2.5-0.6c-0.3,2.6-2.4,4.6-5.1,4.6c-0.7,0-1.4-0.2-2.1-0.4
		c-1,0.4-2.2,0.7-3.3,0.7c-1.9,0-3.6-0.6-5-1.6c-0.3,0.1-0.7,0.1-1.1,0.1c-1.2,0-2.3-0.4-3.1-1.1c-0.6,0.2-1.2,0.4-1.8,0.5
		c0.5,0.6,0.9,1.4,0.9,2.2c0,1.8-1.5,3.3-3.3,3.3c-1.8,0-3.3-1.5-3.3-3.3c0-0.5,0.1-1,0.4-1.5c-0.6,0.5-1.3,0.8-2.2,0.8
		c-1.8,0-3.3-1.5-3.3-3.3c0-1.3,0.8-2.4,1.9-2.9c0-0.1-0.1-0.1-0.1-0.2c-1-0.7-1.7-1.8-1.7-3.1c0-1.1,0.5-2.1,1.2-2.7c0,0,0,0,0-0.1
		c-1-0.5-1.8-1.2-2.6-2c-0.1,1.9-1.6,3.3-3.5,3.3c-1.6,0-3-1.1-3.4-2.6c-0.8,0.5-1.6,0.9-2.5,1.2c-0.2,0.8-0.6,1.5-1.1,2
		c-0.1,0.7-0.5,1.4-1,1.9c0.3-0.1,0.5-0.1,0.8-0.1c2,0,3.6,1.6,3.6,3.6c0,2-1.6,3.6-3.6,3.6c-0.6,0-1.1-0.1-1.6-0.4
		c0,0.4-0.1,0.7-0.1,1.1c0,0,0.1,0,0.1,0c1.5,0,2.7,1.2,2.7,2.7c0,1.5-1.2,2.7-2.7,2.7c-0.9,0-1.8-0.5-2.2-1.2
		c-1.5,1.7-3.7,2.7-6.2,2.7c-4.7,0-8.5-3.8-8.5-8.5c0-0.9,0.1-1.7,0.4-2.5c-0.6,0.4-1.4,0.6-2.2,0.6c-0.1,0-0.2,0-0.3,0
		c-0.4,1.2-1,2.2-1.8,3.1c2.9,0.3,5.2,2.8,5.2,5.8c0,3.2-2.6,5.8-5.8,5.8c-2.3,0-4.2-1.3-5.2-3.2c-1,0.4-2.1,0.6-3.2,0.6
		c-4.7,0-8.5-3.8-8.5-8.5c0-1,0.2-1.9,0.5-2.8c-0.4,0-0.9-0.1-1.3-0.3c-0.2,2.4-2,4.4-4.2,5c-0.8,0.4-1.7,0.6-2.6,0.6
		c-3.2,0-5.8-2.6-5.8-5.8c0-3,2.3-5.5,5.2-5.7c0.3-0.1,0.6-0.2,1-0.2c-1.4-1-2.3-2.7-2.3-4.5c0-3.1,2.5-5.6,5.6-5.6
		c0.1-2.3,1.1-4.4,2.7-5.9c0,0,0-0.1,0-0.1c0-0.2,0-0.5,0-0.7c-0.2,0.1-0.5,0.1-0.8,0.1c-2,0-3.6-1.6-3.6-3.6s1.6-3.6,3.6-3.6
		c1.4,0,2.6,0.8,3.2,1.9c0.2-0.2,0.3-0.3,0.5-0.5c-0.2-0.6-0.2-1.3-0.2-2c0-2.3,0.9-4.4,2.5-6c0.2-1.9,1.8-3.3,3.7-3.3
		c0.9,0,1.7,0.3,2.3,0.8c0.8,0,1.5,0.1,2.3,0.3c0,0,0,0,0-0.1c-1.5-0.5-2.6-1.9-2.6-3.6c0-1.9,1.4-3.5,3.3-3.8
		c-1.2-0.6-2.1-1.9-2.1-3.4c0-0.7,0.2-1.3,0.5-1.8c-0.4-0.5-0.6-1.2-0.6-1.8c0-1.3,0.8-2.5,2-3c-1.2-1-1.9-2.5-1.9-4.2
		c0-1.8,0.8-3.3,2.1-4.3c0-0.1,0-0.3,0-0.5c0-1.8,1.5-3.3,3.3-3.3c0.7,0,1.4,0.3,2,0.7c0.6-2.3,2.7-4.1,5.3-4.1c3,0,5.4,2.4,5.4,5.4
		c0,0.1,0,0.2,0,0.3c0.5-1.6,1.4-3.1,2.7-4.1c-2.2-0.7-3.9-2.8-3.9-5.3c0-3.1,2.5-5.6,5.6-5.6c3.1,0,5.6,2.5,5.6,5.6
		c0,1.3-0.4,2.4-1.1,3.4c1.2,0.1,2.4,0.5,3.4,1c1.5-1.3,3.4-2,5.5-2c0.3,0,0.6,0,0.8,0c0.3-0.8,0.8-1.5,1.4-2.1
		c-0.3-0.7-0.4-1.4-0.4-2.1c0-3.1,2.5-5.7,5.7-5.7c2.4,0,4.5,1.6,5.3,3.7c1.1-1.7,2.9-2.8,5.1-2.8c0.9,0,1.7,0.2,2.4,0.5
		c0.9-1.7,2.8-2.9,4.9-2.9c2.7,0,4.9,1.9,5.4,4.4c0.6-0.2,1.3-0.3,2-0.3c1,0,2,0.3,2.9,0.7c0-0.1,0-0.3,0-0.4c0-3.4,2.8-6.2,6.2-6.2
		c3.4,0,6.2,2.8,6.2,6.2c0,3.4-2.8,6.2-6.2,6.2c-1,0-2-0.3-2.9-0.7c0,0.1,0,0.3,0,0.4c0,1.6-0.6,3.1-1.7,4.2c0.2,0,0.3,0,0.5,0
		c1.3,0,2.6,0.4,3.6,1.2c4,0.7,7,4.2,7,8.3c0,0.7-0.1,1.4-0.3,2.1c0,0.1,0,0.2,0.1,0.2c0.1,0,0.2,0,0.3,0c3.4,0,6.2,2.8,6.2,6.2
		c0,1.3-0.4,2.6-1.2,3.6c0,0.3,0.1,0.6,0.1,1c0,1.5-0.4,3-1.1,4.2c0.1,0.3,0.2,0.7,0.2,1c0,0.4-0.1,0.8-0.2,1.2
		c-0.1,1.1-0.3,2.1-0.7,3c1-2.1,3.1-3.5,5.5-3.5c3.4,0,6.2,2.8,6.2,6.2c0,3.3-2.6,6-5.9,6.1c0,0.3,0.1,0.6,0.1,0.9
		c0,1.2-0.3,2.4-0.7,3.5c2.5,0.8,4.3,3.1,4.3,5.8c0,2-0.9,3.7-2.4,4.8c1.9,1,3.2,3.1,3.2,5.4c0,0.2,0,0.3,0,0.4
		c0.6,0.6,0.9,1.3,0.9,2.2c0,1.1-0.6,2-1.4,2.6c1.3,1.1,2.1,2.8,2.1,4.6C471,285.6,468.2,288.3,464.8,288.3z M398.6,277
		c-0.2,0-0.4,0.1-0.6,0.1c-0.2,0-0.4,0-0.6-0.1c0.2,0.2,0.4,0.5,0.6,0.8C398.1,277.5,398.3,277.3,398.6,277z M394.2,271.4
		c0-0.4,0-0.7,0.1-1.1c-0.4-0.3-0.7-0.7-1-1.1c-0.6,0.7-1.4,1.3-2.2,1.8c0,0,0,0,0,0c1.5,0,2.8,1.2,2.8,2.8c0,0.3-0.1,0.6-0.2,0.9
		c0.4,0.1,0.7,0.3,1.1,0.5c-0.2-0.4-0.3-0.9-0.3-1.4c0-0.2,0-0.4,0-0.6C394.3,272.6,394.2,272,394.2,271.4z M379.5,249.8
		c1,0.4,1.8,1.2,2.2,2.2c0.6-0.3,1.3-0.6,2-0.7c-0.6-0.6-1-1.3-1.4-2c-0.3,0.1-0.6,0.1-1,0.1c-0.8,0-1.4-0.3-2-0.7
		C379.4,249.1,379.5,249.5,379.5,249.8z M443.3,262.3c0.1,0,0.2,0,0.4,0c0,0,0.1,0,0.1,0c0.2-0.1,0.3-0.2,0.5-0.3
		c-0.3,0-0.6,0-0.9-0.1C443.3,262.1,443.3,262.2,443.3,262.3z M446,261.9c0.1,0,0.1,0,0.2,0c0,0,0-0.1,0-0.1
		C446.1,261.9,446,261.9,446,261.9z M376.8,259.1c0,0.1,0,0.3,0,0.4c0.1,0.1,0.2,0.1,0.3,0.2c0-0.1,0-0.1,0-0.2
		c0-0.6,0.1-1.2,0.2-1.7c-0.2,0-0.4-0.1-0.6-0.1C376.8,258.1,376.8,258.6,376.8,259.1z M439,269.5c0.3,0.2,0.6,0.4,0.9,0.6
		c-0.3-0.3-0.5-0.7-0.7-1.1C439.2,269.1,439.1,269.3,439,269.5z M379.6,232.2c0,0,0,0.1,0,0.1c0,0,0.1,0,0.1,0
		C379.7,232.3,379.7,232.2,379.6,232.2z M383.1,272.3c1.3,0.8,2.1,2.2,2.1,3.8c0,0.1,0,0.2,0,0.3c0.9-0.9,2.1-1.5,3.4-1.9
		c-0.1-0.3-0.1-0.5-0.1-0.8c0-0.8,0.3-1.5,0.8-2c-0.7,0.2-1.5,0.3-2.3,0.3c-1.3,0-2.5-0.3-3.6-0.8
		C383.3,271.6,383.2,272,383.1,272.3z M458.9,243.4c-0.2,0.4-0.4,0.7-0.6,1.1c0.1,0,0.2,0.1,0.3,0.1
		C458.7,244.2,458.8,243.8,458.9,243.4z M440.3,213.2c0.1,0.1,0.1,0.2,0.2,0.3c0.1-0.1,0.2-0.2,0.3-0.3
		C440.6,213.2,440.5,213.2,440.3,213.2z M389.2,217.7c0.1,0,0.3,0.1,0.4,0.1c0-0.1,0-0.1,0-0.2c0-0.3,0-0.6,0-0.8
		C389.5,217.1,389.4,217.4,389.2,217.7z M419.2,282.9c0.1-0.1,0.2-0.2,0.3-0.2c-0.1,0-0.1,0-0.2-0.1
		C419.3,282.8,419.2,282.8,419.2,282.9z M460.5,277.8c-2-1-3.4-3.1-3.4-5.5c0-2,0.9-3.7,2.4-4.8c-1.1-0.6-1.9-1.5-2.5-2.6
		c-0.2,0.4-0.4,0.7-0.7,1c-0.2,0.6-0.5,1.2-0.9,1.7c1,1.4,1.6,3.1,1.6,5c0,1.9-0.6,3.6-1.7,5c1.6,0.5,2.9,1.7,3.6,3.2
		C459.1,279.7,459.6,278.6,460.5,277.8z M342.1,286.2c0.5-0.7,0.8-1.6,0.8-2.5c0-2.4-2-4.4-4.4-4.4s-4.4,2-4.4,4.4
		c0,2.4,1.9,4.3,4.3,4.4c-0.5,0.7-0.8,1.6-0.8,2.5c0,2.4,2,4.4,4.4,4.4c2.4,0,4.4-2,4.4-4.4C346.4,288.3,344.5,286.3,342.1,286.2z
		 M299.6,297c-2.1,0-3.8,1.7-3.8,3.8s1.7,3.8,3.8,3.8s3.8-1.7,3.8-3.8S301.7,297,299.6,297z M480,278.6c-1.6,0-2.9,1.3-2.9,2.9
		c0,1.6,1.3,2.9,2.9,2.9c1.6,0,2.9-1.3,2.9-2.9C482.9,279.9,481.6,278.6,480,278.6z M318.8,287.3c-0.7,0-1.4,0.2-1.9,0.6
		c0-0.9-0.3-1.7-0.8-2.3c0.1,0,0.2,0,0.3,0c2.5,0,4.4-2,4.4-4.4c0-0.9-0.3-1.7-0.7-2.4c0.4,0.1,0.8,0.2,1.3,0.2
		c2.3,0,4.2-1.9,4.2-4.2s-1.9-4.2-4.2-4.2c-2.3,0-4.2,1.9-4.2,4.2c0,0.8,0.2,1.6,0.7,2.2c-0.5-0.2-1-0.3-1.5-0.3
		c-1.2,0-2.4,0.5-3.2,1.3c-0.1-2-1.7-3.7-3.7-3.8c0.1-0.2,0.1-0.4,0.1-0.7c0-1-0.5-1.8-1.3-2.3c0.1,0,0.2,0,0.3,0
		c1.7,0,3.1-1.4,3.1-3.1c0-1.7-1.4-3.1-3.1-3.1c-1.7,0-3.1,1.4-3.1,3.1c0,1.2,0.6,2.2,1.6,2.7c0,0-0.1,0-0.1,0
		c-1.5,0-2.7,1.2-2.7,2.7c0,1.2,0.7,2.2,1.8,2.6c-0.4,0.6-0.6,1.3-0.6,2.1c0,0.7,0.2,1.4,0.5,2c-0.1,0-0.2,0-0.2,0c-1.7,0-3,1.3-3,3
		c0,1.7,1.3,3,3,3c1.7,0,3-1.3,3-3c0-0.4-0.1-0.8-0.2-1.1c0.3,0.1,0.6,0.1,0.9,0.1c1,0,2-0.4,2.7-1c0,0,0,0,0,0.1
		c0,1.2,0.5,2.2,1.2,3c-2.1,0-3.7,1.7-3.7,3.8c0,2.1,1.7,3.8,3.8,3.8c1,0,1.8-0.4,2.5-1c0.2,1.6,1.5,2.8,3.2,2.8
		c1.8,0,3.2-1.4,3.2-3.2S320.6,287.3,318.8,287.3z M293.3,290.5c-1.9,0-3.5,1.5-3.5,3.5c0,1.9,1.5,3.5,3.5,3.5
		c1.9,0,3.5-1.5,3.5-3.5C296.8,292,295.2,290.5,293.3,290.5z M339,274.3c0-3-2.4-5.4-5.4-5.4c-3,0-5.4,2.4-5.4,5.4
		c0,3,2.4,5.4,5.4,5.4C336.6,279.7,339,277.2,339,274.3z M325.4,281.8c-2.1,0-3.7,1.7-3.7,3.7c0,2.1,1.7,3.7,3.7,3.7
		c2.1,0,3.7-1.7,3.7-3.7C329.2,283.5,327.5,281.8,325.4,281.8z M532.6,273.5c-0.8,0-1.6,0.2-2.2,0.7c0-2.2-1.8-3.9-4-3.9
		c-2.2,0-4,1.8-4,4c0,2.2,1.8,4,4,4c0.8,0,1.6-0.2,2.2-0.7c0,2.1,1.8,3.9,3.9,3.9c2.2,0,4-1.8,4-4
		C536.6,275.2,534.8,273.5,532.6,273.5z M539.3,277.8c-1.4,0-2.5,1.1-2.5,2.5c0,1.4,1.1,2.5,2.5,2.5s2.5-1.1,2.5-2.5
		C541.8,278.9,540.7,277.8,539.3,277.8z M537.6,267.8c0.5,0.3,1.1,0.4,1.7,0.4c2.1,0,3.7-1.7,3.7-3.7s-1.7-3.7-3.7-3.7
		s-3.7,1.7-3.7,3.7c0,0.4,0.1,0.8,0.2,1.2c-0.6-0.3-1.2-0.5-1.9-0.5c-2.2,0-4,1.8-4,4s1.8,4,4,4c2.2,0,4-1.8,4-4
		C537.8,268.7,537.7,268.3,537.6,267.8z M544.9,259.3c-0.5,0.5-0.7,1.2-0.7,1.9c0,1.5,1.2,2.8,2.8,2.8c0,0,0,0,0.1,0
		C546.4,262.4,545.7,260.8,544.9,259.3z M352.7,213.2c3.4,0,6.1-2.8,6.1-6.1c0-3.4-2.8-6.1-6.1-6.1c-3.4,0-6.1,2.8-6.1,6.1
		C346.5,210.5,349.3,213.2,352.7,213.2z M488.3,287.2c-3.2,0-5.9,2.6-5.9,5.9c0,3.2,2.6,5.9,5.9,5.9c3.2,0,5.9-2.6,5.9-5.9
		C494.2,289.8,491.5,287.2,488.3,287.2z M513.5,278.3c-1.3,0-2.5,0.6-3.3,1.6c-0.4-2.1-2.3-3.7-4.5-3.7c-0.9,0-1.7,0.2-2.3,0.6
		c0.8-0.9,1.3-2.1,1.3-3.4c0-2.8-2.3-5.1-5.1-5.1c-2.8,0-5.1,2.3-5.1,5.1s2.3,5.1,5.1,5.1c1,0,1.9-0.3,2.6-0.7
		c-0.7,0.8-1.1,1.9-1.1,3c0,2.6,2.1,4.6,4.6,4.6c1.6,0,2.9-0.8,3.8-1.9c0.5,1.8,2.1,3.1,4.1,3.1c2.3,0,4.2-1.9,4.2-4.2
		C517.7,280.1,515.8,278.3,513.5,278.3z M507.3,286.6c-2.7,0-4.9,2.2-4.9,4.9s2.2,4.9,4.9,4.9c2.7,0,4.9-2.2,4.9-4.9
		S510,286.6,507.3,286.6z M522.8,285.1c-2.4,0-4.3,1.9-4.3,4.3c0,2.4,1.9,4.3,4.3,4.3c2.4,0,4.3-1.9,4.3-4.3
		C527.2,287,525.2,285.1,522.8,285.1z M531.6,284.2c-1.8,0-3.3,1.5-3.3,3.3c0,1.8,1.5,3.3,3.3,3.3s3.3-1.5,3.3-3.3
		C534.9,285.7,533.4,284.2,531.6,284.2z M541.4,269.6c-1.8,0-3.2,1.4-3.2,3.2s1.4,3.2,3.2,3.2s3.2-1.4,3.2-3.2
		S543.2,269.6,541.4,269.6z M328.6,179.6c1.3,0,2.3-1,2.3-2.3s-1-2.3-2.3-2.3c-1.3,0-2.3,1-2.3,2.3S327.3,179.6,328.6,179.6z
		 M319.1,210.9c2,0,3.6-1.6,3.6-3.6c0-2-1.6-3.6-3.6-3.6c-2,0-3.6,1.6-3.6,3.6C315.5,209.3,317.1,210.9,319.1,210.9z M325.9,200.2
		c1.9,0,3.4-1.5,3.4-3.4c0-1.9-1.5-3.4-3.4-3.4c-1.9,0-3.4,1.5-3.4,3.4C322.5,198.7,324,200.2,325.9,200.2z M319.2,247.8
		c2.8,0,5-2.2,5-5c0-2.8-2.2-5-5-5c-2.8,0-5,2.2-5,5C314.2,245.5,316.4,247.8,319.2,247.8z M305.6,249.5c0,2.6,2.1,4.7,4.7,4.7
		s4.7-2.1,4.7-4.7c0-2.6-2.1-4.7-4.7-4.7S305.6,246.9,305.6,249.5z M311.5,264.7c0,2.7,2.2,4.8,4.8,4.8c2.7,0,4.8-2.2,4.8-4.8
		c0-2.7-2.2-4.8-4.8-4.8C313.7,259.9,311.5,262,311.5,264.7z M351.8,234.8c2.1,0,4-1.1,5-2.7c0.3,1,1.2,1.7,2.3,1.7
		c1.3,0,2.4-1.1,2.4-2.4c0-1.3-1.1-2.4-2.4-2.4c-0.5,0-1,0.2-1.4,0.4c0-0.1,0-0.3,0-0.4c0-3.3-2.7-6-6-6c-3.3,0-6,2.7-6,6
		S348.4,234.8,351.8,234.8z M354.5,239.8c-3.1,0-5.6,2.5-5.6,5.6c0,1.8,0.8,3.3,2.1,4.4c0.4,1.2,1.6,2.1,2.9,2.1
		c1,0,1.8-0.4,2.4-1.1c2.2-0.7,3.8-2.8,3.8-5.3C360.1,242.3,357.6,239.8,354.5,239.8z M337.4,168.4c1.4,0,2.5-1.1,2.5-2.5
		c0-1.4-1.1-2.5-2.5-2.5c-1.4,0-2.5,1.1-2.5,2.5C334.9,167.2,336,168.4,337.4,168.4z M339.1,155.2c1.2,0,2.1-1,2.1-2.1
		c0-1.2-1-2.1-2.1-2.1s-2.1,1-2.1,2.1C336.9,154.2,337.9,155.2,339.1,155.2z M348.9,265.6c3.3,0,5.9-2.6,5.9-5.9s-2.6-5.9-5.9-5.9
		c-1,0-2,0.3-2.8,0.7c-0.1,0-0.1,0-0.2,0c-2,0-3.6,1.6-3.6,3.6c0,0.8,0.3,1.5,0.7,2.2C343.3,263.2,345.8,265.6,348.9,265.6z
		 M276.9,281.4c-1.6,0.2-2.9,1.6-2.9,3.2c0,1.8,1.5,3.3,3.3,3.3c1.8,0,3.3-1.5,3.3-3.3c0-0.5-0.1-1.1-0.4-1.5
		c1.9-0.1,3.5-1.7,3.5-3.6c0-2-1.6-3.6-3.6-3.6c-2,0-3.6,1.6-3.6,3.6C276.3,280.2,276.5,280.9,276.9,281.4z M275.4,294.3
		c-1.7,0-3,1.4-3,3c0,1.7,1.4,3,3,3s3-1.4,3-3C278.4,295.7,277,294.3,275.4,294.3z M270.3,267.1c-1.6,0-2.8,1.3-2.8,2.8
		c0,1.6,1.3,2.8,2.8,2.8c1.6,0,2.8-1.3,2.8-2.8C273.1,268.4,271.8,267.1,270.3,267.1z M307,226.8c2.2,0,4-1.8,4-4c0-2.2-1.8-4-4-4
		c-2.2,0-4,1.8-4,4C303.1,225,304.8,226.8,307,226.8z M291.4,257.6c0-2-1.6-3.6-3.6-3.6c-0.2,0-0.5,0-0.7,0.1
		c0.1-0.3,0.1-0.5,0.1-0.8c0-2-1.6-3.6-3.6-3.6c-2,0-3.6,1.6-3.6,3.6c0,2,1.6,3.6,3.6,3.6c0.2,0,0.5,0,0.7-0.1
		c-0.1,0.3-0.1,0.5-0.1,0.8c0,2,1.6,3.6,3.6,3.6S291.4,259.6,291.4,257.6z M288.9,270.6c1.9,0,3.4-1.5,3.4-3.4
		c0-1.9-1.5-3.4-3.4-3.4s-3.4,1.5-3.4,3.4C285.5,269.1,287,270.6,288.9,270.6z M281.3,302c-2.1,0-3.8,1.7-3.8,3.8
		c0,2.1,1.7,3.8,3.8,3.8s3.8-1.7,3.8-3.8C285.1,303.7,283.4,302,281.3,302z M295.9,275.8c2,0,3.7-1.7,3.7-3.7s-1.7-3.7-3.7-3.7
		s-3.7,1.7-3.7,3.7S293.8,275.8,295.9,275.8z M289.2,298.3c-1.9,0-3.4,1.5-3.4,3.4c0,1.9,1.5,3.4,3.4,3.4s3.4-1.5,3.4-3.4
		C292.7,299.8,291.1,298.3,289.2,298.3z M272.8,254.7c2,0,3.6-1.6,3.6-3.6c0-2-1.6-3.6-3.6-3.6c0,0-0.1,0-0.1,0
		c-1,1.9-1.9,3.7-2.9,5.5C270.4,254.1,271.5,254.7,272.8,254.7z M261.7,277.1c-0.4,0-0.8,0.1-1.2,0.2c-0.2,1.8-0.2,3.6-0.1,5.3
		c0.4,0.2,0.8,0.3,1.3,0.3c1.6,0,2.9-1.3,2.9-2.9C264.6,278.4,263.3,277.1,261.7,277.1z"/>
	<path fill="#EAE6CC" d="M302.2,351.8c-28.6,54.6-53.6,90.1-96,133.6c-9,8.4-3.6,16.5,17.4,10.3c23.9-7.1,91.2-28.2,107.2-82.8
		C344.5,366.2,302.2,351.8,302.2,351.8z"/>
	<path fill="#D3CEB6" d="M332.4,406.5c-0.4,2-0.9,4.1-1.5,6.3c-10.9,37.3-45.7,59-74.3,71.2c41-19.9,43.9-38.2,43.9-40.2
		c0-2.2-2.9-8-11.3-12.3c-7.7-4-16.4-10.1-23.9-17c1.6-2.3,3.2-4.7,4.7-7l22.8-16.7L332.4,406.5z"/>
	<path fill="#EAE6CC" d="M517.9,353.9c23.3,57,56.5,108,76.6,134.6c8.1,9.2-9.8,14.1-33.1,1.1c-19.1-10.6-59.7-32.6-80.4-76.6
		S517.9,353.9,517.9,353.9z"/>
	<path fill="#D3CEB6" d="M516.2,454.7c7.1,7.4,20.6,19.5,35.4,29.5c-19.1-11.1-47.7-30-65.9-61.9l24.9-5.3l29.1-16.3
		c3.5,6.7,7,13.2,10.5,19.5c-4.8-4.3-7.7-4.6-11.4-2.8c-4.3,2.2-18.8,12.5-25.1,15.2C507.5,435.4,506.5,444.5,516.2,454.7z"/>
	<g>
		<path fill="#A1B7B7" d="M364.8,167.7c0,0-52.1,186.2-103.2,235.1c-6.5,6.5,32.6,30.9,57.5,32.6c25,1.6,5.4-84.7,5.4-84.7
			s11.9,6,10.9-29.9S353.9,225.8,364.8,167.7z"/>
		<path fill="#A1B7B7" d="M462,178c1.6,12.5,53.7,180.8,83.1,223.1c3.8,4.9-15.2,26.6-61.4,32.6c-47.5,6.2-10.9-84.7-4.3-120.5
			C485.9,277.4,464.7,217.1,462,178z"/>
	</g>
	<path fill="#7D9190" d="M545.2,401.4c3,5.3-15.8,26-60.2,32.1c-16.9-16.3,3.9-81.7,3.9-81.7h8.1c5.6,12.8,10,31.7,9.6,55.4
		s12.7,16.1,16.7,13.9C526.8,419.3,544.2,410.8,545.2,401.4z M318.6,358.1h-4.3c-6.2,11.9-11.6,23.9-11.2,57.6
		c0.2,8-4.5,12.3-13.6,8.1c-7.6-3.5-25.6-10.7-28.5-19.9c-2.2,7.6,33.3,29.4,57.1,31.5C326.9,417.8,318.6,358.1,318.6,358.1z"/>
	<path fill="none" stroke="#647776" stroke-width="5" stroke-linecap="round" stroke-miterlimit="10" d="M338.7,267.4
		c0,0,72.8-30.4,140.8,0.7"/>
	<path fill="none" stroke="#647776" stroke-width="4" stroke-linecap="round" stroke-miterlimit="10" d="M345.4,250.7
		c0,0,75.8-28.6,128.5-10.2"/>
	<path fill="none" stroke="#647776" stroke-width="4" stroke-linecap="round" stroke-miterlimit="10" d="M359,222.5
		c28.2-6.9,71.3-14.5,101.4,2.5"/>
	<path fill="none" stroke="#647776" stroke-width="6" stroke-linecap="round" stroke-miterlimit="10" d="M327.5,295.3
		c0,0,76-55.7,156.4-1.8"/>
	<path fill="none" stroke="#647776" stroke-width="6" stroke-linecap="round" stroke-miterlimit="10" d="M323.1,304.7
		c51-28.6,123.1-28.2,165.1-1.8"/>
	<path fill="none" stroke="#647776" stroke-width="3" stroke-linecap="round" stroke-miterlimit="10" d="M363.7,214.6
		c26.8-8.7,59-17.7,90.9,2.5"/>
	<path fill="none" stroke="#647776" stroke-width="3" stroke-linecap="round" stroke-miterlimit="10" d="M365.5,202.2
		c0,0,50.7-16.3,87.6,0.7"/>
	<path fill="#513E32" d="M463.6,464.3c0,0-72.7,82.1-108.6,56.5c-29.3-20.9-21.8-150-31.9-154.2c-22.4-9.4-19.5-36.9,3.6-52.1
		c23.2-15.2,42.2-39.2,82.5-44.9c36.2-5.1,50.7,9.4,63.7,26.8c13,17.4,48.5,46.3,13,63.7S463.6,464.3,463.6,464.3z"/>
	<path fill="#423229" d="M497.3,351.8c-2.4,2.9-6.1,5.7-11.3,8.2c-20.7,10.1-24.9,43.9-24.8,70.3c-3,3.8-4.9,6-4.9,6l-102.3,77.1
		l-22.9-84.3c-2.5-32.2-3.4-60.8-8.1-62.7c-5.1-2.1-8.9-5.2-11.5-8.9c8.8-15.6,24.3-30.4,42.2-39.2c0,0-5.1,18.5-1.6,42.7
		c2-24.4,7.6-38,14.1-44.9c0,0,17-2.2,26.1-5.1c9-2.9,42.5-12.1,61,5.4C453.4,316.6,487.7,329.2,497.3,351.8z"/>
	<path fill="#634F3F" d="M501.3,475.6c-1.9-27.6,14.4-109.7-12.8-134.1c-8.6-7.8-18.4-14.6-30.9-19.4c1.5,41.3-6.4,98.9-6.4,98.9
		c4.6-41.6,1.9-85.1,0.6-100.9c-12.3-3.8-27.1-5.8-45.4-4.8c-13.3,0.7-27,2.3-39.1,5.4c-7.6,9.8-13.4,31.9-9.4,72.8
		c5.1,52.1-1.4,102.8-1.4,102.8s5.8-63.7-5.1-115.8c-5.3-25.3-5.8-41.7-4.9-51.9c-1.9,1.1-3.6,2.2-5.3,3.4
		c-14.5,10.9-32.4,22.8-34.5,56.9s0.2,79.1-2.7,90.7c-2.9,11.6-8.6,39.2-4.3,51.6c7.2,21,47,45.2,95.5,43.8
		c48.5-1.4,104.2-23.2,111.1-47.4C510.9,511,503.2,502.7,501.3,475.6z"/>
	<path opacity="0.17" fill="#634F3F" d="M373.8,328.9c2.1,0,3.8,1.7,3.8,3.8s-1.7,3.8-3.8,3.8s-3.8-1.7-3.8-3.8
		S371.7,328.9,373.8,328.9z M385,320c0-1.3-1.1-2.4-2.4-2.4c-1.3,0-2.4,1.1-2.4,2.4s1.1,2.4,2.4,2.4C383.9,322.3,385,321.3,385,320z
		 M369.1,383.4c-1.2,0-2.1,1-2.1,2.1c0,1.2,1,2.1,2.1,2.1s2.1-1,2.1-2.1C371.3,384.4,370.3,383.4,369.1,383.4z M355.4,524.4
		c0,0.5,0.4,1,1,1c0.5,0,1-0.4,1-1c0-0.5-0.4-1-1-1C355.8,523.4,355.4,523.8,355.4,524.4z M359.9,365.2c1.8,0,3.3-1.5,3.3-3.3
		s-1.5-3.3-3.3-3.3c-1.4,0-2.6,0.9-3.1,2.2c0,0.7-0.1,1.4-0.1,2.1C357.1,364.2,358.4,365.2,359.9,365.2z M381.6,456.1
		c0,1,0.8,1.8,1.8,1.8c1,0,1.8-0.8,1.8-1.8s-0.8-1.8-1.8-1.8C382.4,454.3,381.6,455.1,381.6,456.1z M398.5,316.5
		c0,0.9,0.7,1.6,1.6,1.6c0.9,0,1.6-0.7,1.6-1.6c0-0.4-0.1-0.7-0.4-1c-0.9,0.1-1.8,0.1-2.7,0.2C398.6,315.9,398.5,316.2,398.5,316.5z
		 M380.7,381c-1.4,0-2.6,1.1-2.6,2.6s1.1,2.6,2.6,2.6s2.6-1.1,2.6-2.6S382.1,381,380.7,381z M369.1,353.8c0,2,1.6,3.6,3.6,3.6
		c0.1,0,0.1,0,0.2,0c-0.5,0.6-0.8,1.3-0.8,2.2c0,1.9,1.5,3.4,3.4,3.4s3.4-1.5,3.4-3.4s-1.5-3.4-3.4-3.4c0,0-0.1,0-0.1,0
		c0.5-0.6,0.8-1.4,0.8-2.3c0-2-1.6-3.6-3.6-3.6C370.7,350.2,369.1,351.8,369.1,353.8z M370.9,417.7c-1,0-1.8,0.8-1.8,1.8
		c0,1,0.8,1.8,1.8,1.8c1,0,1.8-0.8,1.8-1.8C372.6,418.5,371.8,417.7,370.9,417.7z M373.6,393.2c0-1-0.8-1.8-1.8-1.8
		c-1,0-1.8,0.8-1.8,1.8s0.8,1.8,1.8,1.8C372.8,395.1,373.6,394.2,373.6,393.2z M371.9,431.3c0-0.9-0.8-1.7-1.7-1.7s-1.7,0.8-1.7,1.7
		s0.8,1.7,1.7,1.7S371.9,432.2,371.9,431.3z M370.8,442c1.1,0,2.1-0.9,2.1-2.1c0-1.1-0.9-2.1-2.1-2.1c-1.1,0-2.1,0.9-2.1,2.1
		C368.7,441.1,369.6,442,370.8,442z M375.6,401.4c0,1.4,1.1,2.5,2.5,2.5s2.5-1.1,2.5-2.5c0-1.4-1.1-2.5-2.5-2.5
		S375.6,400,375.6,401.4z M377.8,323.6c-1.8,0-3.2,1.4-3.2,3.2c0,1.8,1.4,3.2,3.2,3.2c1.8,0,3.2-1.4,3.2-3.2
		C380.9,325,379.5,323.6,377.8,323.6z M430.1,318.2c0-1.3-1.1-2.4-2.4-2.4c-1.3,0-2.4,1.1-2.4,2.4c0,1.3,1.1,2.4,2.4,2.4
		C429,320.7,430.1,319.6,430.1,318.2z M420.8,329.9c0,1.9,1.5,3.4,3.4,3.4c1.9,0,3.4-1.5,3.4-3.4c0-1.8-1.4-3.3-3.2-3.4
		c0.6-0.5,0.9-1.2,0.9-2.1c0-1.5-1.3-2.8-2.8-2.8s-2.8,1.3-2.8,2.8c0,1.4,1,2.6,2.4,2.8C421.3,327.9,420.8,328.9,420.8,329.9z
		 M419.4,316.8c0,1.2,1,2.2,2.2,2.2c1.2,0,2.2-1,2.2-2.2c0-0.7-0.3-1.2-0.8-1.6c-0.9,0-1.8-0.1-2.6-0.1
		C419.8,315.4,419.4,316,419.4,316.8z M392,343.6c-2.3,0-4.2,1.9-4.2,4.2s1.9,4.2,4.2,4.2s4.2-1.9,4.2-4.2S394.3,343.6,392,343.6z
		 M415.1,323.9c0,1.2,1,2.2,2.2,2.2c1.2,0,2.2-1,2.2-2.2c0-1.2-1-2.2-2.2-2.2C416,321.7,415.1,322.7,415.1,323.9z M439.1,320.6
		c0,1.3,1,2.3,2.3,2.3c1.3,0,2.3-1,2.3-2.3s-1-2.3-2.3-2.3C440.2,318.3,439.1,319.3,439.1,320.6z M447.1,323.8c0,1,0.8,1.8,1.8,1.8
		c1,0,1.8-0.8,1.8-1.8c0-1-0.8-1.8-1.8-1.8C447.9,321.9,447.1,322.8,447.1,323.8z M413,318.1c0-1-0.8-1.9-1.9-1.9s-1.9,0.8-1.9,1.9
		c0,1,0.8,1.9,1.9,1.9S413,319.1,413,318.1z M395.5,334.5c1.8,0,3.3-1.5,3.3-3.3s-1.5-3.3-3.3-3.3s-3.3,1.5-3.3,3.3
		S393.7,334.5,395.5,334.5z M410,341.6c2,0,3.7-1.6,3.7-3.7s-1.6-3.7-3.7-3.7c0,0-0.1,0-0.1,0c0.1-0.4,0.2-0.7,0.2-1.1
		c0-2.1-1.7-3.7-3.7-3.7s-3.7,1.7-3.7,3.7c0,2.1,1.7,3.7,3.7,3.7c0,0,0.1,0,0.1,0c-0.1,0.3-0.2,0.7-0.2,1.1
		C406.3,340,407.9,341.6,410,341.6z M404.1,318.8c0,0.9,0.7,1.7,1.7,1.7s1.7-0.7,1.7-1.7c0-0.9-0.7-1.7-1.7-1.7
		S404.1,317.9,404.1,318.8z M395.6,317.9c0-0.9-0.7-1.7-1.7-1.7c-0.9,0-1.7,0.7-1.7,1.7c0,0.9,0.7,1.7,1.7,1.7
		C394.8,319.6,395.6,318.9,395.6,317.9z M402.5,323.9c0-1.3-1.1-2.4-2.4-2.4c-0.2,0-0.4,0-0.6,0.1c0.2-0.3,0.3-0.6,0.3-1
		c0-1-0.8-1.7-1.7-1.7c-1,0-1.7,0.8-1.7,1.7s0.8,1.7,1.7,1.7c0.1,0,0.2,0,0.3,0c-0.4,0.4-0.6,1-0.6,1.6c0,1.3,1.1,2.4,2.4,2.4
		S402.5,325.2,402.5,323.9z M408.9,323.6c0-1.2-0.9-2.1-2.1-2.1c-1.2,0-2.1,0.9-2.1,2.1c0,1.2,0.9,2.1,2.1,2.1
		C408,325.7,408.9,324.7,408.9,323.6z M382.5,371.7c0-1.5-1.2-2.7-2.7-2.7c-1.5,0-2.7,1.2-2.7,2.7s1.2,2.7,2.7,2.7
		C381.3,374.4,382.5,373.2,382.5,371.7z M380.2,409.5c0-1.3-1.1-2.4-2.4-2.4c-1.3,0-2.4,1.1-2.4,2.4c0,1.3,1.1,2.4,2.4,2.4
		C379.2,411.9,380.2,410.8,380.2,409.5z M380,424.9c0.7,0,1.2-0.5,1.2-1.2c0-0.7-0.5-1.2-1.2-1.2c-0.7,0-1.2,0.5-1.2,1.2
		C378.9,424.4,379.4,424.9,380,424.9z M389.1,330c0-1.9-1.5-3.4-3.4-3.4c-1.9,0-3.4,1.5-3.4,3.4s1.5,3.4,3.4,3.4
		C387.5,333.4,389.1,331.9,389.1,330z M385,337.6c0-2.2-1.8-4-4-4c-2.2,0-4,1.8-4,4c0,2.2,1.8,4,4,4
		C383.2,341.6,385,339.8,385,337.6z M375.7,478.6c1,0,1.7-0.8,1.7-1.7s-0.8-1.7-1.7-1.7s-1.7,0.8-1.7,1.7S374.7,478.6,375.7,478.6z
		 M371.3,461.5c0-1-0.8-1.8-1.8-1.8c-1,0-1.8,0.8-1.8,1.8s0.8,1.8,1.8,1.8C370.5,463.2,371.3,462.4,371.3,461.5z M372.5,492.4
		c1,0,1.9-0.8,1.9-1.9c0-1-0.8-1.9-1.9-1.9s-1.9,0.8-1.9,1.9C370.7,491.6,371.5,492.4,372.5,492.4z M359.3,350.3
		c2,0,3.7-1.7,3.7-3.7c0-2-1.7-3.7-3.7-3.7c-0.2,0-0.5,0-0.7,0.1c-0.4,2.2-0.7,4.5-1,6.9C358.1,350.1,358.7,350.3,359.3,350.3z
		 M365.4,496.7c0,0.5,0.4,0.8,0.8,0.8s0.8-0.4,0.8-0.8s-0.4-0.8-0.8-0.8S365.4,496.2,365.4,496.7z M349.3,528.9
		c0,0.6,0.5,1.2,1.2,1.2c0.6,0,1.2-0.5,1.2-1.2c0-0.6-0.5-1.2-1.2-1.2C349.8,527.8,349.3,528.3,349.3,528.9z M389.8,320.7
		c0-1.2-0.9-2.1-2.1-2.1c-1.2,0-2.1,0.9-2.1,2.1s0.9,2.1,2.1,2.1C388.9,322.8,389.8,321.8,389.8,320.7z M386.1,358.6
		c-1.9,0-3.5,1.6-3.5,3.5c0,1.9,1.6,3.5,3.5,3.5c1.9,0,3.5-1.6,3.5-3.5C389.6,360.2,388,358.6,386.1,358.6z M362.3,339.4
		c-0.3,0.6-0.5,1.2-0.5,1.9c0,2.2,1.8,4,4,4c0.7,0,1.3-0.2,1.9-0.5c0.5,1.5,1.9,2.6,3.5,2.6c2,0,3.7-1.6,3.7-3.7s-1.6-3.7-3.7-3.7
		c-0.5,0-1,0.1-1.5,0.3c-0.4-1.5-1.6-2.7-3.1-3c0.2-0.5,0.4-1,0.4-1.6c0-2.1-1.7-3.8-3.8-3.8c-0.7,0-1.3,0.2-1.9,0.5
		c-0.5,1.6-1,3.2-1.5,5C360.3,338.4,361.2,339.2,362.3,339.4z M364.9,324.3c0.6,1,1.6,1.6,2.8,1.6c1.4,0,2.5-0.8,3-2
		c0.5,0.9,1.5,1.5,2.6,1.5c1.7,0,3-1.3,3-3s-1.3-3-3-3c-1.2,0-2.2,0.7-2.7,1.7c-0.2-0.4-0.5-0.8-0.9-1.1c-0.8,0.2-1.6,0.4-2.4,0.6
		C366.5,321.7,365.6,322.9,364.9,324.3z M365.9,396.8c-1,0-1.8,0.8-1.8,1.8c0,1,0.8,1.8,1.8,1.8s1.8-0.8,1.8-1.8
		C367.7,397.6,366.9,396.8,365.9,396.8z M370,475.5c0-1.2-1-2.2-2.2-2.2c-1.2,0-2.2,1-2.2,2.2c0,1.2,1,2.2,2.2,2.2
		C369,477.8,370,476.8,370,475.5z M369.9,409.5c0-1.1-0.9-2-2-2s-2,0.9-2,2c0,1.1,0.9,2,2,2S369.9,410.6,369.9,409.5z M370.9,452.5
		c1.4,0,2.5-1.1,2.5-2.5s-1.1-2.5-2.5-2.5s-2.5,1.1-2.5,2.5S369.5,452.5,370.9,452.5z M364.6,450.8c1.2,0,2.2-1,2.2-2.2
		s-1-2.2-2.2-2.2s-2.2,1-2.2,2.2S363.4,450.8,364.6,450.8z M364.1,390c0,1,0.8,1.7,1.7,1.7s1.7-0.8,1.7-1.7s-0.8-1.7-1.7-1.7
		S364.1,389,364.1,390z M375.3,406.1c0-1.2-1-2.1-2.1-2.1s-2.1,1-2.1,2.1s1,2.1,2.1,2.1S375.3,407.3,375.3,406.1z M362.5,429.8
		c0,1,0.8,1.8,1.8,1.8s1.8-0.8,1.8-1.8c0-1-0.8-1.8-1.8-1.8S362.5,428.8,362.5,429.8z M368.2,415.4c0-1.1-0.9-1.9-1.9-1.9
		s-1.9,0.9-1.9,1.9c0,1.1,0.9,1.9,1.9,1.9S368.2,416.5,368.2,415.4z M363.6,515c0.8,0,1.5-0.7,1.5-1.5c0-0.8-0.7-1.5-1.5-1.5
		s-1.5,0.7-1.5,1.5C362.1,514.4,362.8,515,363.6,515z M367.1,468.5c0-0.8-0.6-1.4-1.4-1.4c-0.8,0-1.4,0.6-1.4,1.4
		c0,0.8,0.6,1.4,1.4,1.4C366.4,469.9,367.1,469.3,367.1,468.5z M363.2,503.5c0.6,0,1.1-0.5,1.1-1.1c0-0.6-0.5-1.1-1.1-1.1
		s-1.1,0.5-1.1,1.1C362.1,503,362.6,503.5,363.2,503.5z M360.9,509.9c0.7,0,1.2-0.6,1.2-1.2s-0.6-1.2-1.2-1.2s-1.2,0.6-1.2,1.2
		S360.2,509.9,360.9,509.9z M362.6,372.6c0,1.3,1,2.3,2.3,2.3c1.3,0,2.3-1,2.3-2.3s-1-2.3-2.3-2.3
		C363.6,370.4,362.6,371.4,362.6,372.6z M365.9,363.3c0,1.7,1.3,3,3,3s3-1.3,3-3s-1.3-3-3-3S365.9,361.7,365.9,363.3z"/>
</g>
</svg>
