<?xml version="1.0" encoding="utf-8"?>
<!-- Generator: Adobe Illustrator 19.2.0, SVG Export Plug-In . SVG Version: 6.00 Build 0)  -->
<!DOCTYPE svg PUBLIC "-//W3C//DTD SVG 1.1//EN" "http://www.w3.org/Graphics/SVG/1.1/DTD/svg11.dtd">
<svg version="1.1" id="Layer_1" xmlns="http://www.w3.org/2000/svg" xmlns:xlink="http://www.w3.org/1999/xlink" x="0px" y="0px"
	 viewBox="0 0 140 140" enable-background="new 0 0 140 140" xml:space="preserve">
<g>
	<path fill="#FFFFFF" d="M39.5,120.5l0.3-17.1l30.3-0.4l-0.3-63.8c-28.6-5.5-49.1,17-52.6,34.4S16,134.2,16,134.2l54-1.6l-0.3-11.3
		L39.5,120.5z M50.3,68c5.8,0,10.5,4.7,10.5,10.5c0,5.8-4.7,10.5-10.5,10.5s-10.5-4.7-10.5-10.5C39.8,72.6,44.5,68,50.3,68z"/>
	<path fill="#677089" d="M123.5,138.4h-107c-3.6,0-6.5-2.9-6.5-6.5V92.7c0-33.1,26.9-60,60-60s60,26.9,60,60v39.2
		C130,135.5,127.1,138.4,123.5,138.4z M18.1,130.3h103.8V92.7c0-28.6-23.3-51.9-51.9-51.9S18.1,64.1,18.1,92.7V130.3z"/>
	<circle fill="#63708B" cx="70" cy="13.8" r="12.2"/>
	<rect x="65.9" y="11.5" fill="#677089" width="8.1" height="24.1"/>
	<path fill="#677089" d="M50.3,90.6c-6.7,0-12.2-5.5-12.2-12.2c0-6.7,5.5-12.2,12.2-12.2s12.2,5.5,12.2,12.2
		C62.5,85.1,57,90.6,50.3,90.6z M50.3,69.7c-4.8,0-8.7,3.9-8.7,8.7c0,4.8,3.9,8.7,8.7,8.7s8.7-3.9,8.7-8.7
		C59,73.6,55.1,69.7,50.3,69.7z"/>
	<path fill="#677089" d="M50.3,83.8c-2.9,0-5.3-2.4-5.3-5.3s2.4-5.3,5.3-5.3s5.3,2.4,5.3,5.3S53.2,83.8,50.3,83.8z M50.3,75.4
		c-1.7,0-3,1.4-3,3c0,1.7,1.4,3,3,3s3-1.4,3-3C53.3,76.8,52,75.4,50.3,75.4z"/>
	<path fill="#677089" d="M89.7,90.6c-6.7,0-12.2-5.5-12.2-12.2c0-6.7,5.5-12.2,12.2-12.2c6.7,0,12.2,5.5,12.2,12.2
		C101.9,85.1,96.4,90.6,89.7,90.6z M89.7,69.7c-4.8,0-8.7,3.9-8.7,8.7c0,4.8,3.9,8.7,8.7,8.7c4.8,0,8.7-3.9,8.7-8.7
		C98.4,73.6,94.5,69.7,89.7,69.7z"/>
	<path fill="#677089" d="M89.7,83.8c-2.9,0-5.3-2.4-5.3-5.3s2.4-5.3,5.3-5.3s5.3,2.4,5.3,5.3S92.7,83.8,89.7,83.8z M89.7,75.4
		c-1.7,0-3,1.4-3,3c0,1.7,1.4,3,3,3c1.7,0,3-1.4,3-3C92.7,76.8,91.4,75.4,89.7,75.4z"/>
	<path fill="#677089" d="M98.5,122.7H41.5c-1.9,0-3.4-1.5-3.4-3.4v-14.1c0-1.9,1.5-3.4,3.4-3.4h56.9c1.9,0,3.4,1.5,3.4,3.4v14.1
		C101.9,121.1,100.4,122.7,98.5,122.7z M98.5,119.2v1.7V119.2L98.5,119.2L98.5,119.2z M98.4,105.1l-56.9,0l0,14.1l56.8,0V105.1z"/>
	<g>
		<rect x="43.8" y="103.4" fill="#677089" width="2.3" height="17.5"/>
		<rect x="49.4" y="103.4" fill="#677089" width="2.3" height="17.5"/>
		<rect x="54.9" y="103.4" fill="#677089" width="2.3" height="17.5"/>
		<rect x="60.5" y="103.4" fill="#677089" width="2.3" height="17.5"/>
		<rect x="66.1" y="103.4" fill="#677089" width="2.3" height="17.5"/>
		<rect x="71.6" y="103.4" fill="#677089" width="2.3" height="17.5"/>
		<rect x="77.2" y="103.4" fill="#677089" width="2.3" height="17.5"/>
		<rect x="82.8" y="103.4" fill="#677089" width="2.3" height="17.5"/>
		<rect x="88.3" y="103.4" fill="#677089" width="2.3" height="17.5"/>
		<rect x="93.9" y="103.4" fill="#677089" width="2.3" height="17.5"/>
	</g>
	<rect x="69.4" y="120.9" fill="#677089" width="1.2" height="12.1"/>
	<rect x="69.4" y="37.3" fill="#677089" width="1.2" height="66.1"/>
	<g>
		<path fill="#677089" d="M124.7,117.7v-31l15.3,3v24.9L124.7,117.7z M128.2,91v22.5l8.3-1.6V92.6L128.2,91z"/>
		<path fill="#677089" d="M15.3,117.7l-15.3-3V89.8l15.3-3V117.7z M3.5,111.8l8.3,1.6V91l-8.3,1.6V111.8z"/>
	</g>
</g>
</svg>
