<?xml version="1.0" encoding="utf-8"?>
<!-- Generator: Adobe Illustrator 19.2.0, SVG Export Plug-In . SVG Version: 6.00 Build 0)  -->
<!DOCTYPE svg PUBLIC "-//W3C//DTD SVG 1.1//EN" "http://www.w3.org/Graphics/SVG/1.1/DTD/svg11.dtd">
<svg version="1.1" id="Layer_1" xmlns="http://www.w3.org/2000/svg" xmlns:xlink="http://www.w3.org/1999/xlink" x="0px" y="0px"
	 viewBox="0 0 140 140" enable-background="new 0 0 140 140" xml:space="preserve">
<g>
	<path fill="#FFFFFF" d="M119.3,53.7c0,27.2-22.1,49.3-49.3,49.3S20.7,80.9,20.7,53.7c0-27.1,21.8-49.1,48.9-49.3
		C48.6,7.3,32.4,25.3,32.4,47c0,23.8,19.3,43.1,43.1,43.1c23.8,0,43.1-19.3,43.1-43.1c0-0.8,0-1.6-0.1-2.4
		C119,47.5,119.3,50.6,119.3,53.7z"/>
	<path fill="#677089" d="M70,107.4c-29.6,0-53.7-24.1-53.7-53.7C16.3,24.1,40.4,0,70,0c29.6,0,53.7,24.1,53.7,53.7
		C123.7,83.3,99.6,107.4,70,107.4z M70,8.8c-24.8,0-44.9,20.2-44.9,44.9c0,24.8,20.2,44.9,44.9,44.9s44.9-20.2,44.9-44.9
		C114.9,28.9,94.8,8.8,70,8.8z"/>
	<path fill="#677089" d="M92.8,131.3H47.2c-1.7,0-3.1-1.4-3.1-3.1s1.4-3.1,3.1-3.1h45.6c1.7,0,3.1,1.4,3.1,3.1
		S94.5,131.3,92.8,131.3z"/>
	<path fill="#677089" d="M92.8,119.9H47.2c-2.4,0-4.4-2-4.4-4.4s2-4.4,4.4-4.4h45.6c2.4,0,4.4,2,4.4,4.4S95.2,119.9,92.8,119.9z"/>
	<path fill="#677089" d="M82.6,140H57.4c-1,0-1.9-0.8-1.9-1.9s0.8-1.9,1.9-1.9h25.1c1,0,1.9,0.8,1.9,1.9S83.6,140,82.6,140z"/>
	<path fill="#677089" d="M82.6,78.1c-0.5,0-1-0.2-1.3-0.5L70,66.4L58.8,77.6c-0.7,0.7-1.9,0.7-2.7,0L43.5,65c-0.7-0.7-0.7-1.9,0-2.7
		c0.7-0.7,1.9-0.7,2.7,0l11.2,11.2l11.2-11.2c0.7-0.7,1.9-0.7,2.7,0l11.2,11.2l11.2-11.2c0.7-0.7,1.9-0.7,2.7,0
		c0.7,0.7,0.7,1.9,0,2.7L83.9,77.6C83.5,78,83,78.1,82.6,78.1z"/>
</g>
</svg>
