<?xml version="1.0" encoding="utf-8"?>
<!-- Generator: Adobe Illustrator 19.2.0, SVG Export Plug-In . SVG Version: 6.00 Build 0)  -->
<!DOCTYPE svg PUBLIC "-//W3C//DTD SVG 1.1//EN" "http://www.w3.org/Graphics/SVG/1.1/DTD/svg11.dtd">
<svg version="1.1" id="Layer_1" xmlns="http://www.w3.org/2000/svg" xmlns:xlink="http://www.w3.org/1999/xlink" x="0px" y="0px"
	 viewBox="0 0 140 140" enable-background="new 0 0 140 140" xml:space="preserve">
<g>
	<g>
		<g>
			<path fill-rule="evenodd" clip-rule="evenodd" fill="#FFFFFF" d="M127,75v-4.7H20.4L11,69.1l0.2,1.2H11l1.2,10.5l1.2-0.1l2.6,13
				h-0.3l1.2,8.2l0.8,0l2.2,10.6h-0.6l1.3,3.2l3.4,16.7l4.7-1.2l-1.8-13l14.1-0.3l1.7,14.5l5.9-1.2l-0.3-13.5l11.5-0.3l0.5,13.8
				l3.5,1.2l1.5-15.1l26.7-0.6v14.6h3.5l2.3-14.7l15-0.4l-2.1,15.1h4.7l2.9-15.2l0.6,0v-3l3.2-16.9l0.3,0l1.2-2.3h-1l3.6-18.7
				L127,75z M91.9,76.8v17H67.5L69,77.9L91.9,76.8z M58.2,78.5l0.6,15.2h-11L47.5,79L58.2,78.5z M21.7,80.4l14.8-0.8l1.6,14.1H23.5
				L21.7,80.4z M26,112.5l-1.5-11l14.4-0.8l1.4,11.8H26z M48.1,112.5l-0.2-12.3L59,99.6l0.5,12.9H48.1z M65.7,112.5l1.3-13.3
				l24.9-1.4v14.7H65.7z M113.2,112.5H98.3l2.4-15.2l14.7-0.8L113.2,112.5z M115.8,93.7h-14.5l2.8-17.6l14.3-0.7L115.8,93.7z"/>
		</g>
	</g>
	<g>
		<path fill="#677089" d="M116.7,137.4H23.3c-2,0-3.7-1.4-4-3.3L7.6,72.4c-0.4-2.2,1-4.4,3.3-4.8c2.2-0.4,4.4,1,4.8,3.3l11.1,58.3
			h86.6l11.1-58.3c0.4-2.2,2.6-3.7,4.8-3.3c2.2,0.4,3.7,2.6,3.3,4.8L120.7,134C120.4,136,118.7,137.4,116.7,137.4z"/>
		<path fill="#677089" d="M135.8,73.4H4.2c-2.3,0-4.1-1.8-4.1-4.1s1.8-4.1,4.1-4.1h131.7c2.3,0,4.1,1.8,4.1,4.1
			S138.1,73.4,135.8,73.4z"/>
	</g>
	<circle fill="#677089" cx="41.4" cy="69" r="9.3"/>
	<circle fill="#677089" cx="98.5" cy="69" r="9.3"/>
	<path fill="#677089" d="M41.4,73.1c-0.2,0-0.4,0-0.6,0c-2.2-0.3-3.8-2.4-3.5-4.6l9-62.3c0.3-2.2,2.4-3.8,4.6-3.5
		c2.2,0.3,3.8,2.4,3.5,4.6l-9,62.3C45.2,71.7,43.4,73.1,41.4,73.1z"/>
	<path fill="#677089" d="M98.6,72.3c-1.3,0-2.6-0.6-3.4-1.7L60.4,21.4c-1.3-1.8-0.9-4.4,1-5.7c1.8-1.3,4.4-0.9,5.7,1l34.8,49.2
		c1.3,1.8,0.9,4.4-1,5.7C100.2,72.1,99.4,72.3,98.6,72.3z"/>
	<g>
		<path fill="#677089" d="M41.4,135.6c-2.1,0-3.8-1.5-4.1-3.6l-7.1-60.1c-0.3-2.3,1.3-4.3,3.6-4.6c2.2-0.3,4.3,1.3,4.6,3.6l7.1,60.1
			c0.3,2.3-1.3,4.3-3.6,4.6C41.7,135.5,41.6,135.6,41.4,135.6z"/>
		<path fill="#677089" d="M60.5,135.6c-2.2,0-4-1.7-4.1-3.9L54,71.5c-0.1-2.3,1.7-4.2,3.9-4.3c2.2-0.1,4.2,1.7,4.3,3.9l2.4,60.1
			c0.1,2.3-1.7,4.2-3.9,4.3C60.6,135.6,60.5,135.6,60.5,135.6z"/>
		<path fill="#677089" d="M79.5,135.6c-0.1,0-0.1,0-0.2,0c-2.3-0.1-4-2-3.9-4.3l2.4-60.1c0.1-2.3,2-4,4.3-3.9c2.3,0.1,4,2,3.9,4.3
			l-2.4,60.1C83.5,133.8,81.7,135.6,79.5,135.6z"/>
		<path fill="#677089" d="M98.6,135.6c-0.2,0-0.3,0-0.5,0c-2.3-0.3-3.9-2.3-3.6-4.6l7.1-60.1c0.3-2.2,2.3-3.8,4.6-3.6
			c2.3,0.3,3.9,2.3,3.6,4.6l-7.1,60.1C102.4,134,100.6,135.6,98.6,135.6z"/>
	</g>
	<path fill="#677089" d="M124.2,95.3H15.8c-1,0-1.8-0.8-1.8-1.8s0.8-1.8,1.8-1.8h108.5c1,0,1.8,0.8,1.8,1.8S125.2,95.3,124.2,95.3z"
		/>
	<path fill="#677089" d="M120.7,113.8H19.3c-1,0-1.8-0.8-1.8-1.8s0.8-1.8,1.8-1.8h101.5c1,0,1.8,0.8,1.8,1.8
		S121.7,113.8,120.7,113.8z"/>
</g>
</svg>
