<?xml version="1.0" encoding="utf-8"?>
<!-- Generator: Adobe Illustrator 19.2.0, SVG Export Plug-In . SVG Version: 6.00 Build 0)  -->
<!DOCTYPE svg PUBLIC "-//W3C//DTD SVG 1.1//EN" "http://www.w3.org/Graphics/SVG/1.1/DTD/svg11.dtd">
<svg version="1.1" id="Layer_1" xmlns="http://www.w3.org/2000/svg" xmlns:xlink="http://www.w3.org/1999/xlink" x="0px" y="0px"
	 viewBox="0 0 140 140" enable-background="new 0 0 140 140" xml:space="preserve">
<g>
	<polygon fill="#FFFFFF" points="72.9,21.5 63.6,68 40.4,69 48.3,83.5 47.3,118.1 71.6,99.4 103.3,113.9 108.2,130.2 68.9,103.1 
		32.5,131 32.1,123.3 44.3,85.8 7.3,54.9 53.2,55 70,14 	"/>
	<path fill="#677089" d="M29.8,137c-1.4,0-2.4-0.6-2.9-0.9c-0.9-0.7-3-2.7-1.6-6.8l15-42.5c0-0.1-0.1-0.5-0.2-0.6L3,60.5
		c-3.6-2.5-3.1-5.3-2.8-6.4c0.4-1.1,1.7-3.7,6-3.6l45.1,1.1c0.1,0,0.5-0.3,0.5-0.4L64.7,8C66,3.8,68.8,3.4,70,3.4c0,0,0,0,0,0
		c1.2,0,4,0.5,5.3,4.6l12.9,43.2c0.1,0.1,0.4,0.4,0.6,0.4l45-1.1c0.1,0,0.2,0,0.3,0c4.1,0,5.4,2.5,5.7,3.6c0.4,1.1,0.8,4-2.8,6.4
		L99.9,86.1c-0.1,0.1-0.2,0.5-0.2,0.7l14.9,42.5c1.4,4.1-0.6,6.1-1.6,6.8c-0.9,0.7-3.5,2-7-0.6l-35.8-27.4c-0.2-0.1-0.5-0.1-0.7,0
		l-35.8,27.3C32.3,136.6,30.9,137,29.8,137z M75.6,101.1l27.2,20.7L91.5,89.6c-1.3-3.8,0.2-8.4,3.5-10.7l28.1-19.4l-34.2,0.8
		c-4,0.1-8-2.8-9.1-6.6L70,20.9l-9.8,32.7c-1.2,3.9-5,6.8-9.1,6.6l-34.2-0.8l28.1,19.4c3.3,2.3,4.8,6.9,3.5,10.7l-11.3,32.2
		l27.2-20.7C67.6,98.7,72.4,98.7,75.6,101.1L75.6,101.1z"/>
</g>
</svg>
