<?xml version="1.0" encoding="utf-8"?>
<!-- Generator: Adobe Illustrator 19.2.0, SVG Export Plug-In . SVG Version: 6.00 Build 0)  -->
<!DOCTYPE svg PUBLIC "-//W3C//DTD SVG 1.1//EN" "http://www.w3.org/Graphics/SVG/1.1/DTD/svg11.dtd">
<svg version="1.1" id="Layer_2" xmlns="http://www.w3.org/2000/svg" xmlns:xlink="http://www.w3.org/1999/xlink" x="0px" y="0px"
	 viewBox="0 0 140 140" enable-background="new 0 0 140 140" xml:space="preserve">
<path fill="#FFFFFF" d="M106.8,102.2H17.4c-1.9,0-3.5-1.6-3.5-3.5V41.1c0-1.9,1.6-3.5,3.5-3.5h89.5c1.9,0,3.5,1.6,3.5,3.5v57.6
	C110.3,100.6,108.7,102.2,106.8,102.2z"/>
<path fill="#677089" d="M129.7,115.9H10.3c-5.7,0-10.3-4.6-10.3-10.3V34.2c0-5.7,4.6-10.3,10.3-10.3h119.4c5.7,0,10.3,4.6,10.3,10.3
	v71.5C140,111.3,135.4,115.9,129.7,115.9z M10.3,31c-1.8,0-3.2,1.4-3.2,3.2v71.5c0,1.8,1.4,3.2,3.2,3.2h119.4c1.8,0,3.2-1.4,3.2-3.2
	V34.2c0-1.8-1.4-3.2-3.2-3.2H10.3z"/>
<path fill="#677089" d="M106.2,104H18c-3.3,0-5.9-2.6-5.9-5.9V41.7c0-3.3,2.6-5.9,5.9-5.9h88.2c3.3,0,5.9,2.6,5.9,5.9v56.3
	C112.1,101.3,109.4,104,106.2,104z M18,39.4c-1.3,0-2.4,1.1-2.4,2.4v56.3c0,1.3,1.1,2.4,2.4,2.4h88.2c1.3,0,2.4-1.1,2.4-2.4V41.7
	c0-1.3-1.1-2.4-2.4-2.4H18z"/>
<path fill="#677089" d="M122,53.5c-4,0-7.2-3.2-7.2-7.2c0-4,3.2-7.2,7.2-7.2c4,0,7.2,3.2,7.2,7.2C129.2,50.3,126,53.5,122,53.5z
	 M122,40.3c-3.3,0-6,2.7-6,6c0,3.3,2.7,6,6,6c3.3,0,6-2.7,6-6C128,43,125.3,40.3,122,40.3z"/>
<path fill="#677089" d="M122,63.6c-2.3,0-4.2-1.9-4.2-4.2c0-2.3,1.9-4.2,4.2-4.2c2.3,0,4.2,1.9,4.2,4.2
	C126.2,61.8,124.3,63.6,122,63.6z M122,56.5c-1.6,0-3,1.3-3,3c0,1.6,1.3,3,3,3s3-1.3,3-3C125,57.8,123.7,56.5,122,56.5z"/>
<path fill="#677089" d="M122,73.4c-2.3,0-4.2-1.9-4.2-4.2c0-2.3,1.9-4.2,4.2-4.2c2.3,0,4.2,1.9,4.2,4.2
	C126.2,71.6,124.3,73.4,122,73.4z M122,66.3c-1.6,0-3,1.3-3,3s1.3,3,3,3s3-1.3,3-3S123.7,66.3,122,66.3z"/>
<g>
	<path fill="#677089" d="M20.1,120.7h-4.2c-2,0-3.6-1.6-3.6-3.6v-1.7c0-2,1.6-3.6,3.6-3.6h4.2c2,0,3.6,1.6,3.6,3.6v1.7
		C23.7,119.1,22.1,120.7,20.1,120.7z M15.9,113c-1.3,0-2.4,1.1-2.4,2.4v1.7c0,1.3,1.1,2.4,2.4,2.4h4.2c1.3,0,2.4-1.1,2.4-2.4v-1.7
		c0-1.3-1.1-2.4-2.4-2.4H15.9z"/>
	<path fill="#677089" d="M124.1,120.7h-4.2c-2,0-3.6-1.6-3.6-3.6v-1.7c0-2,1.6-3.6,3.6-3.6h4.2c2,0,3.6,1.6,3.6,3.6v1.7
		C127.7,119.1,126.1,120.7,124.1,120.7z M119.9,113c-1.3,0-2.4,1.1-2.4,2.4v1.7c0,1.3,1.1,2.4,2.4,2.4h4.2c1.3,0,2.4-1.1,2.4-2.4
		v-1.7c0-1.3-1.1-2.4-2.4-2.4H119.9z"/>
</g>
</svg>
