<?xml version="1.0" encoding="utf-8"?>
<!-- Generator: Adobe Illustrator 19.2.0, SVG Export Plug-In . SVG Version: 6.00 Build 0)  -->
<!DOCTYPE svg PUBLIC "-//W3C//DTD SVG 1.1//EN" "http://www.w3.org/Graphics/SVG/1.1/DTD/svg11.dtd">
<svg version="1.1" id="Layer_1" xmlns="http://www.w3.org/2000/svg" xmlns:xlink="http://www.w3.org/1999/xlink" x="0px" y="0px"
	 viewBox="0 0 140 140" enable-background="new 0 0 140 140" xml:space="preserve">
<g>
	<path fill="#FFFFFF" d="M68.3,50.1c15.2,26.4,37.7,65.4,40.3,69.9c2.6,4.5,10.8,9.7,21.4,3.5c1.5,1.1,0.4,2,0.4,2
		s-21.4,14.7-25.4,12.7c-3.9-2.1-5.4-4.5-5.4-4.5l-44-76.8L68.3,50.1z"/>
	<g>
		<path fill="#677089" d="M13.1,84.1c-0.3,0-0.6,0-1-0.1c-1-0.3-1.8-0.9-2.3-1.7l-5.4-9.3c-1-1.8-0.4-4,1.3-5.1
			c8.3-5,30.6-20.7,33.7-33c0.5-2,2.5-3.2,4.5-2.7c2,0.5,3.2,2.5,2.7,4.5c-3.6,14.8-25.7,30.3-34,35.7l1.7,3l110.2-63.6l-1.7-3
			c-3.4,1.7-9,4.4-15.5,6.9c-14.2,5.5-25.1,7.1-32.4,4.7c-2-0.6-3-2.7-2.4-4.7c0.6-2,2.7-3,4.7-2.4c11.5,3.7,36.6-8,45.2-12.8
			c1.8-1,4-0.4,5,1.4l5.4,9.3c1,1.8,0.4,4.1-1.4,5.1L15,83.6C14.4,83.9,13.8,84.1,13.1,84.1z"/>
		<path fill="#677089" d="M54.5,59.2c-1.3,0-2.5-0.7-3.2-1.9L39.2,36.4c-3.1-5.3-1.2-12.2,4.1-15.2L63.5,9.6C66,8.1,69,7.7,71.9,8.5
			c2.9,0.8,5.3,2.6,6.8,5.2L90.4,34c1,1.8,0.4,4.1-1.4,5.1c-1.8,1-4.1,0.4-5.1-1.4L72.3,17.4c-0.5-0.9-1.3-1.5-2.3-1.7
			c-1-0.3-2-0.1-2.8,0.4L47,27.6c-1.8,1-2.4,3.3-1.4,5.1l12.1,20.9c1,1.8,0.4,4.1-1.4,5.1C55.8,59,55.1,59.2,54.5,59.2z"/>
		<path fill="#677089" d="M106.5,140c-0.8,0-1.6-0.1-2.4-0.3c-2.4-0.6-4.4-2.2-5.6-4.3L53.6,57.6c-0.5-0.9-0.2-2,0.7-2.5
			c0.9-0.5,2-0.2,2.5,0.7l44.9,77.7c1.5,2.7,5,3.6,7.6,2l20.2-11.6c2.7-1.5,3.6-5,2-7.6L86.1,37.6c-0.5-0.9-0.2-2,0.7-2.5
			c0.9-0.5,2-0.2,2.5,0.7l45.4,78.7c2.6,4.4,1,10.1-3.4,12.7l-20.2,11.6C109.7,139.6,108.1,140,106.5,140z"/>
		<path fill="#677089" d="M81,55.1c-0.4,0-0.8-0.2-1.1-0.6c-0.3-0.6-0.1-1.4,0.5-1.7l12.5-7.2c0.6-0.3,1.4-0.1,1.7,0.5
			c0.3,0.6,0.1,1.4-0.5,1.7l-12.5,7.2C81.4,55,81.2,55.1,81,55.1z"/>
		<path fill="#677089" d="M85.3,62.6c-0.4,0-0.8-0.2-1.1-0.6c-0.3-0.6-0.1-1.4,0.5-1.7l12.5-7.2c0.6-0.3,1.4-0.1,1.7,0.5
			c0.3,0.6,0.1,1.4-0.5,1.7l-12.5,7.2C85.7,62.6,85.5,62.6,85.3,62.6z"/>
		<path fill="#677089" d="M89.7,70.2c-0.4,0-0.8-0.2-1.1-0.6c-0.3-0.6-0.1-1.4,0.5-1.7l12.5-7.2c0.6-0.3,1.4-0.1,1.7,0.5
			c0.3,0.6,0.1,1.4-0.5,1.7L90.3,70C90.1,70.1,89.9,70.2,89.7,70.2z"/>
		<path fill="#677089" d="M94,77.7c-0.4,0-0.8-0.2-1.1-0.6c-0.3-0.6-0.1-1.4,0.5-1.7l12.5-7.2c0.6-0.3,1.4-0.1,1.7,0.5
			c0.3,0.6,0.1,1.4-0.5,1.7l-12.5,7.2C94.4,77.7,94.2,77.7,94,77.7z"/>
		<path fill="#677089" d="M98.4,85.3c-0.4,0-0.8-0.2-1.1-0.6c-0.3-0.6-0.1-1.4,0.5-1.7l12.5-7.2c0.6-0.3,1.4-0.1,1.7,0.5
			c0.3,0.6,0.1,1.4-0.5,1.7L99,85.1C98.8,85.2,98.6,85.3,98.4,85.3z"/>
		<path fill="#677089" d="M102.7,92.8c-0.4,0-0.8-0.2-1.1-0.6c-0.3-0.6-0.1-1.4,0.5-1.7l12.5-7.2c0.6-0.3,1.4-0.1,1.7,0.5
			c0.3,0.6,0.1,1.4-0.5,1.7l-12.5,7.2C103.2,92.8,102.9,92.8,102.7,92.8z"/>
		<path fill="#677089" d="M107.1,100.4c-0.4,0-0.8-0.2-1.1-0.6c-0.3-0.6-0.1-1.4,0.5-1.7l12.5-7.2c0.6-0.3,1.4-0.1,1.7,0.5
			c0.3,0.6,0.1,1.4-0.5,1.7l-12.5,7.2C107.5,100.3,107.3,100.4,107.1,100.4z"/>
		<path fill="#677089" d="M111.4,107.9c-0.4,0-0.8-0.2-1.1-0.6c-0.3-0.6-0.1-1.4,0.5-1.7l12.5-7.2c0.6-0.3,1.4-0.1,1.7,0.5
			c0.3,0.6,0.1,1.4-0.5,1.7l-12.5,7.2C111.9,107.8,111.6,107.9,111.4,107.9z"/>
		<path fill="#677089" d="M115.8,115.4c-0.4,0-0.8-0.2-1.1-0.6c-0.3-0.6-0.1-1.4,0.5-1.7l12.5-7.2c0.6-0.3,1.4-0.1,1.7,0.5
			c0.3,0.6,0.1,1.4-0.5,1.7l-12.5,7.2C116.2,115.4,116,115.4,115.8,115.4z"/>
		<path fill="#677089" d="M120.1,123c-0.4,0-0.8-0.2-1.1-0.6c-0.3-0.6-0.1-1.4,0.5-1.7l12.5-7.2c0.6-0.3,1.4-0.1,1.7,0.5
			c0.3,0.6,0.1,1.4-0.5,1.7l-12.5,7.2C120.6,122.9,120.4,123,120.1,123z"/>
	</g>
</g>
</svg>
